<svg width="250" height="250" viewBox="0 0 250 250" fill="none" xmlns="http://www.w3.org/2000/svg">
<path d="M83.135 17.6699H81.01V27.1849H83.135V17.6699Z" fill="#E0E0E0"/>
<path d="M77.3149 21.365V23.49H86.8299V21.365H77.3149Z" fill="#E0E0E0"/>
<path d="M135.045 64.54H131.79V79.13H135.045V64.54Z" fill="#E0E0E0"/>
<path d="M126.12 70.2098V73.4648H140.71V70.2098H126.12Z" fill="#E0E0E0"/>
<path d="M174.075 22.0649H171.95V31.5799H174.075V22.0649Z" fill="#E0E0E0"/>
<path d="M168.25 25.7549V27.8799H177.765V25.7549H168.25Z" fill="#E0E0E0"/>
<path d="M222.76 39.6499H219.505V54.2399H222.76V39.6499Z" fill="#E0E0E0"/>
<path d="M213.835 45.3148V48.5698H228.425V45.3148H213.835Z" fill="#E0E0E0"/>
<path d="M239.115 110.6H173.01V232.885H239.115V110.6Z" fill="#F5F5F5"/>
<path d="M231.54 228.825H234.825V159.4H231.54V228.825Z" fill="#E0E0E0"/>
<path d="M225.65 228.825H228.935V159.4H225.65V228.825Z" fill="#E0E0E0"/>
<path d="M219.755 228.825H223.04V159.4H219.755V228.825Z" fill="#E0E0E0"/>
<path d="M213.855 228.825H217.14V159.4H213.855V228.825Z" fill="#E0E0E0"/>
<path d="M208.25 228.825H211.535V159.4H208.25V228.825Z" fill="#E0E0E0"/>
<path d="M202.48 228.825H205.765V159.4H202.48V228.825Z" fill="#E0E0E0"/>
<path d="M196.59 228.825H199.875V159.4H196.59V228.825Z" fill="#E0E0E0"/>
<path d="M190.33 228.825H193.615V159.4H190.33V228.825Z" fill="#E0E0E0"/>
<path d="M184.435 228.825H187.72V159.4H184.435V228.825Z" fill="#E0E0E0"/>
<path d="M178.695 228.825H181.98V159.4H178.695V228.825Z" fill="#E0E0E0"/>
<path d="M231.335 155.23H234.62V118.635H231.335V155.23Z" fill="#E0E0E0"/>
<path d="M225.44 155.23H228.725V118.635H225.44V155.23Z" fill="#E0E0E0"/>
<path d="M219.545 155.23H222.83V118.635H219.545V155.23Z" fill="#E0E0E0"/>
<path d="M213.655 155.23H216.94V118.635H213.655V155.23Z" fill="#E0E0E0"/>
<path d="M208.05 155.23H211.335V118.635H208.05V155.23Z" fill="#E0E0E0"/>
<path d="M202.275 155.23H205.56V118.635H202.275V155.23Z" fill="#E0E0E0"/>
<path d="M196.38 155.23H199.665V118.635H196.38V155.23Z" fill="#E0E0E0"/>
<path d="M189.78 155.23H193.065V118.635H189.78V155.23Z" fill="#E0E0E0"/>
<path d="M183.885 155.23H187.17V118.635H183.885V155.23Z" fill="#E0E0E0"/>
<path d="M178.295 155.23H181.58V118.635H178.295V155.23Z" fill="#E0E0E0"/>
<path d="M171.27 144.305H124.535V232.885H171.27V144.305Z" fill="#F5F5F5"/>
<path d="M163.695 228.825H166.98V159.4H163.695V228.825Z" fill="#E0E0E0"/>
<path d="M157.795 228.825H161.08V159.4H157.795V228.825Z" fill="#E0E0E0"/>
<path d="M151.905 228.825H155.19V159.4H151.905V228.825Z" fill="#E0E0E0"/>
<path d="M146.01 228.825H149.295V159.4H146.01V228.825Z" fill="#E0E0E0"/>
<path d="M140.405 228.825H143.69V159.4H140.405V228.825Z" fill="#E0E0E0"/>
<path d="M134.635 228.825H137.92V159.4H134.635V228.825Z" fill="#E0E0E0"/>
<path d="M128.735 228.825H132.02V159.4H128.735V228.825Z" fill="#E0E0E0"/>
<path d="M163.49 155.23H166.775V148.665H163.49V155.23Z" fill="#E0E0E0"/>
<path d="M157.595 155.23H160.88V148.665H157.595V155.23Z" fill="#E0E0E0"/>
<path d="M151.695 155.23H154.98V148.665H151.695V155.23Z" fill="#E0E0E0"/>
<path d="M145.8 155.23H149.085V148.665H145.8V155.23Z" fill="#E0E0E0"/>
<path d="M140.2 155.23H143.485V148.665H140.2V155.23Z" fill="#E0E0E0"/>
<path d="M134.43 155.23H137.715V148.665H134.43V155.23Z" fill="#E0E0E0"/>
<path d="M128.535 155.23H131.82V148.665H128.535V155.23Z" fill="#E0E0E0"/>
<path d="M173.13 233.465C173.06 233.465 173 206.015 173 172.165C173 138.315 173.06 110.855 173.13 110.855C173.2 110.855 173.26 138.3 173.26 172.165C173.26 206.03 173.205 233.465 173.13 233.465Z" fill="#E0E0E0"/>
<path d="M232.98 71.835H182.825V110.855H232.98V71.835Z" fill="#F5F5F5"/>
<path d="M195.01 105.325H198.295V80.105H195.01V105.325Z" fill="#E0E0E0"/>
<path d="M189.12 105.325H192.405V80.105H189.12V105.325Z" fill="#E0E0E0"/>
<path d="M207.25 105.325H210.535V80.105H207.25V105.325Z" fill="#E0E0E0"/>
<path d="M201.355 105.325H204.64V80.105H201.355V105.325Z" fill="#E0E0E0"/>
<path d="M219.485 105.325H222.77V80.105H219.485V105.325Z" fill="#E0E0E0"/>
<path d="M213.59 105.325H216.875V80.105H213.59V105.325Z" fill="#E0E0E0"/>
<path d="M225.835 105.325H229.12V80.105H225.835V105.325Z" fill="#E0E0E0"/>
<path d="M106.87 153.45H60.135V233.175H106.87V153.45Z" fill="#F5F5F5"/>
<path d="M67.7098 174.99H64.4248V229.965H67.7098V174.99Z" fill="#E0E0E0"/>
<path d="M73.6048 174.99H70.3198V229.965H73.6048V174.99Z" fill="#E0E0E0"/>
<path d="M79.4998 174.99H76.2148V229.965H79.4998V174.99Z" fill="#E0E0E0"/>
<path d="M85.3949 174.99H82.1099V229.965H85.3949V174.99Z" fill="#E0E0E0"/>
<path d="M90.9998 174.99H87.7148V229.965H90.9998V174.99Z" fill="#E0E0E0"/>
<path d="M96.7699 174.99H93.4849V229.965H96.7699V174.99Z" fill="#E0E0E0"/>
<path d="M102.665 174.99H99.3799V229.965H102.665V174.99Z" fill="#E0E0E0"/>
<path d="M67.9149 158.425H64.6299V171.685H67.9149V158.425Z" fill="#E0E0E0"/>
<path d="M73.8099 158.425H70.5249V171.685H73.8099V158.425Z" fill="#E0E0E0"/>
<path d="M79.7049 158.425H76.4199V171.685H79.7049V158.425Z" fill="#E0E0E0"/>
<path d="M85.5999 158.425H82.3149V171.685H85.5999V158.425Z" fill="#E0E0E0"/>
<path d="M91.2049 158.425H87.9199V171.685H91.2049V158.425Z" fill="#E0E0E0"/>
<path d="M96.9749 158.425H93.6899V171.685H96.9749V158.425Z" fill="#E0E0E0"/>
<path d="M102.87 158.425H99.585V171.685H102.87V158.425Z" fill="#E0E0E0"/>
<path d="M62.6199 81.0798H12.7749V233.175H62.6199V81.0798Z" fill="#F5F5F5"/>
<path d="M44.4899 35.8098H32.2449V38.0998H44.4899V35.8098Z" fill="#F5F5F5"/>
<path d="M39.2698 17.6699H37.3198V36.4799H39.2698V17.6699Z" fill="#F5F5F5"/>
<path d="M55.6598 38.0999H21.0698V81.8249H55.6598V38.0999Z" fill="#F5F5F5"/>
<path d="M28.8149 43.4849H25.3799V78.8149H28.8149V43.4849Z" fill="#E0E0E0"/>
<path d="M34.9748 43.4849H31.5398V78.8149H34.9748V43.4849Z" fill="#E0E0E0"/>
<path d="M41.1398 43.4849H37.7048V78.8149H41.1398V43.4849Z" fill="#E0E0E0"/>
<path d="M47.3 43.4849H43.865V78.8149H47.3V43.4849Z" fill="#E0E0E0"/>
<path d="M53.1599 43.4849H49.7249V78.8149H53.1599V43.4849Z" fill="#E0E0E0"/>
<path d="M20.8549 87.3198H17.3499V227.045H20.8549V87.3198Z" fill="#E0E0E0"/>
<path d="M27.1449 87.3198H23.6399V227.045H27.1449V87.3198Z" fill="#E0E0E0"/>
<path d="M33.4298 87.3198H29.9248V227.045H33.4298V87.3198Z" fill="#E0E0E0"/>
<path d="M39.715 87.3198H36.21V227.045H39.715V87.3198Z" fill="#E0E0E0"/>
<path d="M45.6949 87.3198H42.1899V227.045H45.6949V87.3198Z" fill="#E0E0E0"/>
<path d="M51.85 87.3198H48.345V227.045H51.85V87.3198Z" fill="#E0E0E0"/>
<path d="M58.1349 87.3198H54.6299V227.045H58.1349V87.3198Z" fill="#E0E0E0"/>
<path d="M240.59 233.64C240.59 233.71 188.59 233.77 124.505 233.77C60.4199 233.77 8.40991 233.71 8.40991 233.64C8.40991 233.57 60.3799 233.5 124.5 233.5C188.62 233.5 240.59 233.57 240.59 233.64Z" fill="#263238"/>
<path d="M169.155 56.795L164.425 57.64C162.049 60.323 158.756 62.0204 155.192 62.3985C151.629 62.7765 148.052 61.808 145.167 59.6833C142.281 57.5585 140.294 54.4312 139.597 50.916C138.9 47.4008 139.543 43.752 141.399 40.6867C143.256 37.6215 146.192 35.3615 149.63 34.3511C153.068 33.3406 156.76 33.6526 159.98 35.226C163.2 36.7993 165.715 39.52 167.03 42.8534C168.346 46.1868 168.367 49.8918 167.09 53.24L169.155 56.795Z" fill="white"/>
<path d="M169.155 56.795C169.155 56.795 169.1 56.715 169.005 56.56L168.6 55.875L167.045 53.26H167.13C167.12 53.2695 167.106 53.2748 167.093 53.2748C167.079 53.2748 167.065 53.2695 167.055 53.26C167.048 53.2506 167.044 53.2392 167.044 53.2275C167.044 53.2159 167.048 53.2045 167.055 53.195C167.88 50.9945 168.153 48.6254 167.85 46.295C167.754 45.5624 167.6 44.8385 167.39 44.13C167.15 43.3781 166.853 42.6459 166.5 41.94C165.744 40.3686 164.703 38.9512 163.43 37.76C161.964 36.3927 160.228 35.3481 158.333 34.6935C156.438 34.039 154.427 33.7891 152.43 33.96C150.22 34.1791 148.091 34.9027 146.205 36.075C144.224 37.3033 142.582 39.0086 141.43 41.035C139.684 44.087 139.13 47.6771 139.874 51.1135C140.617 54.5498 142.607 57.5894 145.458 59.6466C148.309 61.7037 151.821 62.6329 155.317 62.255C158.812 61.8771 162.044 60.219 164.39 57.6C164.39 57.6 164.39 57.6 164.42 57.6L167.92 57.015L168.835 56.865L169.155 56.815L168.86 56.88L167.97 57.05L164.435 57.715H164.47C162.895 59.5161 160.892 60.8917 158.645 61.715C155.857 62.7365 152.823 62.8735 149.954 62.1076C147.086 61.3416 144.524 59.7099 142.616 57.4347C140.709 55.1596 139.55 52.3517 139.296 49.3937C139.043 46.4357 139.708 43.4715 141.2 40.905L141.665 40.13C141.835 39.885 142.015 39.63 142.19 39.405C142.547 38.9304 142.931 38.4763 143.34 38.045C143.535 37.825 143.77 37.64 143.98 37.44C144.188 37.2335 144.408 37.0398 144.64 36.86C145.093 36.496 145.569 36.1619 146.065 35.86C147.984 34.6687 150.152 33.9348 152.4 33.715C154.433 33.544 156.48 33.8024 158.407 34.4734C160.334 35.1444 162.098 36.2131 163.585 37.61C164.871 38.8227 165.921 40.2638 166.68 41.86C167.03 42.5856 167.321 43.338 167.55 44.11C167.759 44.8283 167.91 45.5624 168 46.305C168.293 48.6609 167.996 51.0526 167.135 53.265L167.045 53.215C167.056 53.2065 167.069 53.2019 167.083 53.2019C167.096 53.2019 167.109 53.2065 167.12 53.215L168.62 55.9L169.005 56.58L169.155 56.795Z" fill="#263238"/>
<path d="M153.53 53.9951L146.5 49.2951L148.14 46.8451L152.855 49.9951L158.715 42.2351L161.07 44.0151L153.53 53.9951Z" fill="#DAA520"/>
<path d="M87.7949 55.41L90.1499 50.775C89.1787 48.1506 88.9262 45.3144 89.4184 42.5597C89.9106 39.8049 91.1296 37.2317 92.9495 35.1059C94.7694 32.9802 97.124 31.3791 99.77 30.4683C102.416 29.5574 105.257 29.3699 108 29.925C110.452 30.4154 112.751 31.4837 114.707 33.0413C116.663 34.5988 118.219 36.6006 119.246 38.8804C120.273 41.1602 120.742 43.6521 120.612 46.1492C120.482 48.6462 119.759 51.0763 118.501 53.2376C117.244 55.3988 115.489 57.2288 113.382 58.5756C111.276 59.9223 108.878 60.7469 106.388 60.9809C103.899 61.2149 101.39 60.8514 99.0689 59.9208C96.7482 58.9901 94.683 57.5191 93.0449 55.63L87.7949 55.41Z" fill="white"/>
<path d="M87.7949 55.41H88.1449L89.1449 55.44L93.0249 55.57L92.9749 55.65C92.967 55.6374 92.9643 55.6221 92.9676 55.6076C92.9709 55.593 92.9798 55.5804 92.9924 55.5725C93.005 55.5645 93.0203 55.5619 93.0348 55.5652C93.0493 55.5684 93.062 55.5774 93.0699 55.59C94.7938 57.5538 96.9795 59.0573 99.4299 59.965C100.189 60.2497 100.97 60.4721 101.765 60.63C102.618 60.7894 103.482 60.8863 104.35 60.92C106.513 61.0043 108.669 60.6367 110.682 59.8406C112.694 59.0445 114.519 57.8375 116.039 56.2965C117.558 54.7555 118.74 52.9145 119.508 50.8911C120.276 48.8677 120.614 46.7063 120.5 44.545C120.475 44.24 120.475 43.93 120.44 43.625C120.405 43.32 120.345 43.015 120.295 42.71L120.225 42.25C120.195 42.1 120.15 41.95 120.115 41.8L119.88 40.89C119.8 40.59 119.67 40.3 119.57 40.005C119.472 39.7058 119.359 39.4121 119.23 39.125C118.972 38.5447 118.68 37.9803 118.355 37.435C118.185 37.165 118.035 36.885 117.855 36.62L117.29 35.855L117 35.5L116.685 35.15L116.055 34.445C115.178 33.5662 114.204 32.7912 113.15 32.135C111.107 30.8719 108.804 30.0874 106.415 29.84C104.247 29.6377 102.06 29.8889 99.9941 30.5775C97.9282 31.2662 96.0282 32.3772 94.4149 33.84C93.0043 35.1172 91.84 36.6425 90.9799 38.34C90.7949 38.745 90.5649 39.13 90.4249 39.54L89.9849 40.745C89.7595 41.5239 89.5792 42.3152 89.4449 43.115C89.057 45.6999 89.3252 48.3408 90.2249 50.795C90.2299 50.8095 90.2299 50.8254 90.2249 50.84C89.4499 52.34 88.8549 53.47 88.4499 54.255L87.9849 55.14C87.8799 55.34 87.8199 55.445 87.8199 55.445L87.9599 55.155C88.0599 54.945 88.2049 54.655 88.3949 54.27L90.1249 50.77V50.815C89.1934 48.3479 88.9027 45.6849 89.2799 43.075C89.4106 42.2655 89.5875 41.4642 89.8099 40.675L90.2549 39.455C90.4164 39.0388 90.6 38.6315 90.8049 38.235C91.6712 36.5128 92.8456 34.9639 94.2699 33.665C97.3076 30.9112 101.291 29.436 105.389 29.5468C109.488 29.6577 113.386 31.346 116.27 34.26L116.91 34.975L117.235 35.33L117.52 35.715L118.05 36.5C118.23 36.765 118.39 37.05 118.55 37.33C118.883 37.8672 119.182 38.425 119.445 39C119.595 39.285 119.675 39.6 119.795 39.895C119.915 40.19 120.03 40.49 120.11 40.795L120.345 41.72C120.38 41.87 120.43 42.025 120.46 42.18L120.53 42.645C120.58 42.955 120.625 43.265 120.675 43.575C120.725 43.885 120.715 44.2 120.735 44.51C120.849 46.7011 120.504 48.8918 119.724 50.9423C118.943 52.9929 117.744 54.8582 116.202 56.4193C114.66 57.9803 112.81 59.2028 110.769 60.0087C108.729 60.8146 106.542 61.1863 104.35 61.1C103.472 61.0669 102.597 60.9649 101.735 60.795C98.335 60.1006 95.2623 58.2961 92.9999 55.665L93.0899 55.605C93.0984 55.6156 93.1031 55.6288 93.1031 55.6425C93.1031 55.6561 93.0984 55.6693 93.0899 55.68H93.0599L89.1449 55.475L88.1449 55.42L87.7949 55.41Z" fill="#263238"/>
<path d="M105.525 52.79H97.8398V37.125H105.525V52.79ZM98.3398 52.29H105.025V37.625H98.3398V52.29Z" fill="#263238"/>
<path d="M101.1 39.4351H99.52V41.3451H101.1V39.4351Z" fill="#263238"/>
<path d="M103.845 39.4351H102.265V41.3451H103.845V39.4351Z" fill="#263238"/>
<path d="M101.1 42.415H99.52V44.325H101.1V42.415Z" fill="#263238"/>
<path d="M103.845 42.415H102.265V44.325H103.845V42.415Z" fill="#263238"/>
<path d="M101.1 45.3999H99.52V47.3099H101.1V45.3999Z" fill="#263238"/>
<path d="M103.845 45.3999H102.265V47.3099H103.845V45.3999Z" fill="#263238"/>
<path d="M101.1 48.4749H99.52V50.3849H101.1V48.4749Z" fill="#263238"/>
<path d="M103.845 48.4749H102.265V50.3849H103.845V48.4749Z" fill="#263238"/>
<path d="M108.17 46.7549H106.59V48.6649H108.17V46.7549Z" fill="#263238"/>
<path d="M110.915 46.7549H109.335V48.6649H110.915V46.7549Z" fill="#263238"/>
<path d="M108.17 49.4299H106.59V51.3399H108.17V49.4299Z" fill="#263238"/>
<path d="M110.915 49.4299H109.335V51.3399H110.915V49.4299Z" fill="#263238"/>
<path d="M112.5 52.79H105V45H112.5V52.79ZM105.5 52.29H112V45.5H105.5V52.29Z" fill="#263238"/>
<path d="M111.095 38.9749H107.57V43.9899H111.095V38.9749Z" fill="#455A64"/>
<path d="M109.33 39.8301H106.815L108.075 38.25L109.33 36.675L110.59 38.25L111.85 39.8301H109.33Z" fill="#455A64"/>
<path d="M189.81 226.86V227.43C189.81 227.43 180.245 231.375 180.16 233.2L199.22 232.92L198.87 226.58C197.468 227.274 195.934 227.659 194.37 227.707C192.807 227.755 191.252 227.466 189.81 226.86Z" fill="#263238"/>
<path d="M199.225 232.92L199.14 231.42L180.905 232.245C180.905 232.245 180.06 232.625 180.165 233.245L199.225 232.92Z" fill="#455A64"/>
<path d="M189.75 227.5C189.75 227.59 190.22 227.625 190.68 227.92C191.14 228.215 191.39 228.6 191.475 228.56C191.56 228.52 191.415 227.985 190.85 227.645C190.285 227.305 189.725 227.4 189.75 227.5Z" fill="white"/>
<path d="M187.76 228.34C187.76 228.43 188.145 228.58 188.47 228.97C188.795 229.36 188.885 229.775 188.97 229.77C189.055 229.765 189.115 229.235 188.705 228.77C188.295 228.305 187.76 228.25 187.76 228.34Z" fill="white"/>
<path d="M186.66 230.75C186.745 230.75 186.87 230.3 186.62 229.795C186.37 229.29 185.935 229.09 185.9 229.17C185.865 229.25 186.135 229.515 186.33 229.935C186.525 230.355 186.57 230.74 186.66 230.75Z" fill="white"/>
<path d="M203.44 221.115L195.325 223.385L197.35 227.985L195.245 239.63C195.187 239.95 195.249 240.279 195.418 240.556C195.588 240.833 195.854 241.037 196.165 241.13C196.407 241.198 196.662 241.198 196.904 241.128C197.145 241.058 197.362 240.922 197.53 240.735C199.32 238.735 205.87 231.305 205.715 230.4L205.455 227.98C205.4 227.48 204.915 226.285 204.915 226.175L203.44 221.115Z" fill="#263238"/>
<path d="M196.405 241.19L205.64 229.57L205.685 230.1C205.718 230.318 205.701 230.54 205.636 230.75C205.571 230.961 205.46 231.154 205.31 231.315C204.585 232.485 202.525 235.14 197.565 240.75C197.421 240.911 197.24 241.035 197.039 241.112C196.837 241.188 196.619 241.215 196.405 241.19Z" fill="#455A64"/>
<path d="M198.84 235.46C198.494 235.095 198.082 234.8 197.625 234.59C197.138 234.452 196.629 234.404 196.125 234.45C196.125 234.42 196.265 234.305 196.565 234.24C196.954 234.159 197.358 234.191 197.73 234.33C198.102 234.465 198.426 234.705 198.665 235.02C198.83 235.26 198.87 235.445 198.84 235.46Z" fill="white"/>
<path d="M198.075 237.215C197.689 237.047 197.293 236.902 196.89 236.78C196.469 236.744 196.047 236.73 195.625 236.74C195.813 236.601 196.03 236.508 196.26 236.468C196.49 236.428 196.726 236.443 196.95 236.51C197.725 236.66 198.14 237.175 198.075 237.215Z" fill="white"/>
<path d="M200.345 233.155C199.77 232.85 199.174 232.587 198.56 232.37C197.919 232.238 197.269 232.151 196.615 232.11C197.262 231.881 197.968 231.881 198.615 232.11C199.298 232.242 199.911 232.612 200.345 233.155Z" fill="white"/>
<path d="M197.255 226.405C197.336 226.923 197.368 227.447 197.35 227.97C197.25 228.645 197.105 229.51 196.945 230.445C196.75 231.55 196.56 232.55 196.41 233.275C196.353 233.671 196.256 234.059 196.12 234.435C196.121 234.035 196.163 233.636 196.245 233.245C196.35 232.515 196.51 231.51 196.705 230.4C196.87 229.465 197.03 228.605 197.165 227.94C197.153 227.427 197.183 226.913 197.255 226.405Z" fill="#455A64"/>
<path d="M208.8 151.44C209.44 148.355 211.06 142.775 210.425 140.205C208.925 134.25 206.35 130.805 202.805 123.245H200.17L174.88 122.805L172.81 127.395C170.51 133.58 168.94 137.27 168.31 141.795C167.565 147.005 168.87 154.555 171.77 162.18C178.02 178.635 181.51 191.795 181.77 195.34C182.03 198.885 182.385 202.545 185.675 213.77C188.07 221.965 189.845 226.86 189.845 226.86C192.345 228.27 194.98 228.65 197.385 227.28L204.725 224.45C204.725 224.45 202.475 205.125 199.85 199.995C197.96 196.305 194.85 194.555 196.31 189.745C197.77 184.935 206.84 160.915 208.8 151.44Z" fill="#263238"/>
<path d="M179.2 135.835C179.237 135.876 179.271 135.919 179.3 135.965L179.58 136.35L180.65 137.875L184.65 143.64V143.665V143.69C184.455 145.85 184.38 148.355 184.245 151.15C184.11 153.945 183.965 157.015 183.81 160.315C183.655 163.615 183.45 167.145 183.26 170.84C183.07 174.535 182.85 178.405 182.48 182.38C182.095 185.685 181.755 188.935 182.035 192.055C182.11 192.835 182.205 193.605 182.35 194.36C182.478 195.108 182.662 195.845 182.9 196.565C183.4 197.965 184.03 199.325 184.605 200.645C186.94 205.93 189.105 210.645 190.945 214.62L195.305 224L196.48 226.56C196.605 226.845 196.705 227.06 196.78 227.225C196.855 227.39 196.875 227.455 196.875 227.455C196.875 227.455 196.83 227.385 196.755 227.235L196.435 226.58C196.15 225.99 195.745 225.135 195.22 224.045L190.815 214.68C188.975 210.72 186.77 206.005 184.425 200.725C183.845 199.4 183.235 198.06 182.7 196.63C182.459 195.9 182.274 195.153 182.145 194.395C181.995 193.63 181.895 192.855 181.82 192.07C181.535 188.915 181.875 185.645 182.26 182.34C182.63 178.385 182.82 174.51 183.045 170.84C183.27 167.17 183.44 163.615 183.615 160.315C183.79 157.015 183.94 153.94 184.085 151.15C184.23 148.36 184.32 145.85 184.53 143.69V143.735C182.84 141.235 181.5 139.28 180.575 137.93L179.535 136.385L179.275 135.985C179.244 135.938 179.219 135.888 179.2 135.835Z" fill="#455A64"/>
<path d="M182.57 81.81L184.125 77.885L193.38 77.385L197.16 77.885L197.575 78.975L200.14 124.365C200.14 124.365 191.175 126.175 186.695 125.545C182.215 124.915 176.94 122.87 176.94 122.87V97.055L182.57 81.81Z" fill="#F5F5F5"/>
<path d="M196.5 83.6551C196.5 83.6551 196.5 83.6851 196.435 83.7351L196.235 83.9601C196.06 84.1551 195.795 84.4601 195.445 84.7801C194.491 85.7269 193.479 86.6136 192.415 87.4351L192.37 87.4701L192.335 87.4251C191.334 86.3283 190.405 85.1675 189.555 83.9501C189.46 83.8151 189.37 83.6751 189.28 83.5501H189.395C188.6 84.6151 187.85 85.6251 187.17 86.5501C187.082 86.668 186.978 86.7725 186.86 86.8601C186.8 86.9077 186.731 86.9429 186.657 86.9635C186.583 86.9841 186.506 86.9897 186.43 86.9801C186.288 86.9492 186.159 86.876 186.06 86.7701C185.96 86.6701 185.885 86.5651 185.805 86.4701L184.925 85.3701L183.665 83.7751L183.33 83.3401C183.289 83.2913 183.253 83.2395 183.22 83.1851L183.35 83.3251L183.705 83.7451L185 85.3101L185.89 86.4001C186.05 86.5901 186.21 86.8201 186.45 86.8601C186.69 86.9001 186.905 86.6901 187.07 86.4751L189.285 83.4751L189.34 83.3951L189.395 83.4751L189.665 83.8701C190.514 85.0828 191.436 86.2432 192.425 87.3451H192.34C193.406 86.5348 194.426 85.6651 195.395 84.7401C195.75 84.4001 196.02 84.1301 196.21 83.9451L196.425 83.7351C196.447 83.7055 196.472 83.6786 196.5 83.6551Z" fill="#263238"/>
<g opacity="0.3">
<path d="M185.925 86.535C185.925 86.535 187.1 87.98 187.425 87.615C187.75 87.25 189.495 84.56 189.7 84.45C189.905 84.34 192.01 88.11 192.835 87.85C193.66 87.59 196.6 84.645 196.6 84.645L196.655 83.49L192.375 87.385L189.34 83.5L186.78 86.825C186.78 86.825 186.24 87.265 185.925 86.535Z" fill="black"/>
</g>
<path d="M187.895 125.82C187.883 125.679 187.883 125.537 187.895 125.395C187.895 125.095 187.895 124.685 187.935 124.175C187.98 123.095 188.04 121.57 188.115 119.675C188.275 115.89 188.49 110.675 188.69 104.89C188.89 99.1052 189.035 93.8902 189.14 90.1002C189.19 88.2252 189.235 86.7002 189.265 85.6002C189.285 85.0902 189.3 84.6852 189.31 84.3852C189.31 84.2428 189.321 84.1007 189.345 83.9602C189.357 84.1016 189.357 84.2438 189.345 84.3852V85.6052C189.345 86.6902 189.32 88.2152 189.3 90.1052C189.245 93.8902 189.125 99.1052 188.93 104.9C188.735 110.695 188.485 115.9 188.28 119.685C188.17 121.555 188.08 123.08 188.015 124.185C187.98 124.685 187.95 125.1 187.925 125.405C187.924 125.544 187.914 125.683 187.895 125.82Z" fill="#263238"/>
<g opacity="0.3">
<path d="M179.74 107.5L174.88 139.405L175.255 142.86C175.68 143.36 176.535 143.185 176.965 142.705C177.354 142.184 177.586 141.563 177.635 140.915C179.5 129.88 180.5 118.66 179.74 107.5Z" fill="black"/>
</g>
<path d="M172.9 81.9302C172.008 82.2177 171.199 82.7172 170.542 83.3861C169.885 84.0549 169.401 84.873 169.13 85.7702L163.34 106.195L168.09 120.195L173.05 111.755L176.55 81.2102L172.9 81.9302Z" fill="#DAA520"/>
<path d="M179.59 80.6201L174.09 81.6951L172.55 110.89C172.55 111.25 172.91 116.89 172.91 116.89L163.41 138.1C165.53 141.88 171.26 143.655 175.3 144.6C175.3 144.6 179.39 115.6 179.655 109.21C179.92 102.82 184.025 77.9751 184.025 77.9751L179.59 80.6201Z" fill="#DAA520"/>
<path d="M164.6 135.695L164.635 135.6L164.755 135.32L165.215 134.25C165.62 133.315 166.215 131.965 166.945 130.28L172.865 116.84V116.87C172.82 115.425 172.765 113.925 172.695 112.37C172.535 108.915 172.345 105.62 172.22 102.625C172.095 99.6302 172.015 96.9252 171.99 94.6552C171.965 92.3852 171.99 90.5502 171.99 89.2852C171.99 88.6552 172.015 88.1652 172.025 87.8252C172.025 87.6602 172.025 87.5352 172.025 87.4452C172.025 87.3552 172.025 87.3152 172.025 87.3152C172.025 87.3152 172.025 87.3602 172.025 87.4452V87.8252C172.025 88.1652 172.025 88.6552 172.025 89.2852C172.025 90.5502 172.025 92.3902 172.06 94.6552C172.095 96.9202 172.18 99.6202 172.32 102.62C172.46 105.62 172.63 108.91 172.82 112.365C172.89 113.9 172.945 115.405 172.985 116.865V116.895L167.025 130.32C166.275 131.995 165.675 133.32 165.255 134.27C165.05 134.73 164.885 135.085 164.755 135.33C164.7 135.45 164.66 135.54 164.625 135.605C164.62 135.636 164.612 135.666 164.6 135.695Z" fill="#263238"/>
<path d="M179.395 106.04C179.395 106.04 179.395 106.015 179.37 105.97L179.32 105.765C179.275 105.575 179.215 105.315 179.14 104.98C178.995 104.295 178.795 103.3 178.605 102.055C178.415 100.81 178.235 99.335 178.105 97.68C177.975 96.025 177.845 94.21 177.755 92.3C177.725 91.585 177.69 90.885 177.66 90.2L177.615 89.2C177.615 89.035 177.615 88.87 177.615 88.7V88.45V88.325C177.615 88.325 177.615 88.285 177.615 88.26C177.615 88.235 177.615 88.26 177.615 88.215V88.185C177.615 88.185 177.675 88.16 177.685 88.185C177.695 88.21 177.72 88.185 177.735 88.225H177.64L179.11 87.195V87.305L177.5 86.5H177.455V86.455C177.695 85.55 177.985 84.74 178.235 84.03C178.485 83.32 178.735 82.7 178.92 82.195C179.105 81.69 179.275 81.3 179.385 81.03C179.44 80.905 179.485 80.805 179.515 80.725C179.545 80.645 179.565 80.625 179.565 80.625C179.558 80.663 179.546 80.6999 179.53 80.735L179.42 81.045C179.315 81.325 179.17 81.72 178.98 82.22C178.79 82.72 178.57 83.345 178.325 84.06C178.08 84.775 177.8 85.56 177.565 86.485L177.535 86.42L179.135 87.155L179.235 87.2L179.145 87.265L177.68 88.295H177.585C177.585 88.295 177.635 88.26 177.63 88.26C177.625 88.26 177.63 88.26 177.63 88.26C177.634 88.2622 177.638 88.2634 177.642 88.2634C177.647 88.2634 177.651 88.2622 177.655 88.26H177.68V88.445V88.69L177.705 89.19C177.705 89.52 177.735 89.86 177.75 90.19C177.78 90.875 177.815 91.575 177.845 92.29C177.935 94.2 178.045 96.015 178.185 97.665C178.325 99.315 178.495 100.8 178.685 102.04C178.875 103.28 179.05 104.275 179.185 104.965C179.25 105.3 179.305 105.565 179.34 105.755C179.34 105.84 179.37 105.91 179.38 105.96C179.39 106.01 179.395 106.04 179.395 106.04Z" fill="#263238"/>
<path d="M206.63 119.535L210.13 84.2101L200.295 80.6051C200.295 80.6051 197.99 78.4851 196.765 77.3901L196.33 82.9301C196.33 82.9301 195 105.605 197.095 117.025C199.19 128.445 198.895 128.055 200.425 135.485C201.54 140.89 201.725 145.61 203.425 146.085C205.125 146.56 213.605 143.455 213.605 143.455L206.63 119.535Z" fill="#DAA520"/>
<path d="M210.125 84.2102C210.125 84.2102 213.975 85.6752 214.555 90.6302C214.98 94.2902 217.23 115.195 214.875 117.8C212.059 120.828 208.978 123.599 205.67 126.08L200.17 118.925L205.39 113.185L208.335 87.8602L210.125 84.2102Z" fill="#DAA520"/>
<path d="M199.21 104.825C199.208 104.802 199.208 104.778 199.21 104.755C199.21 104.705 199.21 104.64 199.245 104.56C199.282 104.38 199.332 104.13 199.395 103.81C199.515 103.16 199.695 102.215 199.86 101.04C200.21 98.6902 200.51 95.4252 200.68 91.8052C200.72 90.9519 200.76 90.1185 200.8 89.3052C200.8 88.9002 200.835 88.5052 200.855 88.1152L200.885 87.5402C200.885 87.4452 200.885 87.3502 200.885 87.2552V87.1202C200.888 87.0986 200.888 87.0768 200.885 87.0552C200.898 87.0594 200.912 87.0594 200.925 87.0552H200.965H200.875L199.41 86.0202L199.325 85.9652L199.42 85.9202L201.02 85.1852L200.99 85.2452C200.849 84.601 200.741 83.9502 200.665 83.2952C200.59 82.7152 200.52 82.2202 200.44 81.8202C200.36 81.4202 200.275 81.1102 200.215 80.9002L200.135 80.6652C200.135 80.6152 200.11 80.5852 200.135 80.5852C200.148 80.6093 200.16 80.6344 200.17 80.6602C200.17 80.7152 200.225 80.7902 200.26 80.8902C200.366 81.189 200.451 81.4947 200.515 81.8052C200.605 82.2102 200.685 82.7052 200.77 83.2802C200.852 83.9322 200.968 84.5797 201.115 85.2202V85.2602H201.075L199.5 86.0452V85.9452L200.97 86.9702H200.875C200.889 86.9577 200.906 86.9491 200.925 86.9452C200.941 86.9412 200.959 86.9412 200.975 86.9452C200.975 86.9452 200.975 86.9752 200.975 86.9902V87.2102C200.975 87.3052 200.975 87.4002 200.975 87.4952C200.975 87.6852 200.975 87.8752 200.95 88.0702C200.95 88.4602 200.915 88.8552 200.9 89.2602C200.86 90.0652 200.825 90.9002 200.785 91.7602C200.657 94.8548 200.368 97.9406 199.92 101.005C199.74 102.18 199.545 103.12 199.42 103.77C199.345 104.085 199.29 104.335 199.245 104.515C199.225 104.595 199.21 104.66 199.2 104.71C199.22 104.805 199.215 104.825 199.21 104.825Z" fill="#263238"/>
<path d="M212.755 114.03C212.755 114.03 212.41 113.8 211.82 113.53C211.472 113.362 211.111 113.223 210.74 113.115C210.284 112.989 209.817 112.905 209.345 112.865C208.873 112.835 208.399 112.848 207.93 112.905C207.546 112.955 207.168 113.038 206.8 113.155C206.17 113.35 205.8 113.555 205.8 113.53C205.875 113.467 205.96 113.415 206.05 113.375C206.149 113.321 206.25 113.273 206.355 113.23C206.491 113.165 206.632 113.108 206.775 113.06C207.147 112.931 207.53 112.837 207.92 112.78C208.877 112.641 209.854 112.714 210.78 112.995C211.154 113.11 211.517 113.259 211.865 113.44C211.999 113.509 212.13 113.585 212.255 113.67C212.354 113.728 212.449 113.791 212.54 113.86C212.618 113.908 212.69 113.965 212.755 114.03Z" fill="#263238"/>
<g opacity="0.3">
<path d="M200.3 81.0601C200.3 81.0601 202.075 85.2001 201.8 85.5601C201.525 85.9201 200.62 86.1501 200.62 86.1501C200.62 86.1501 202.15 86.8151 202.15 87.4001C202.15 88.5701 200.505 95.4901 200.505 95.4901L200.91 87.0351L199.445 86.0351L201.045 85.2901L200.3 81.0601Z" fill="black"/>
</g>
<path d="M207.38 92.7151C207.393 92.8113 207.393 92.9089 207.38 93.0051C207.38 93.2201 207.35 93.5051 207.33 93.8301C207.275 94.5851 207.195 95.6101 207.1 96.8651C206.875 99.4601 206.575 102.98 206.24 106.865C206.125 108.075 206.02 109.25 205.915 110.365C205.862 110.925 205.802 111.47 205.735 112C205.686 112.518 205.596 113.031 205.465 113.535L201.65 117.5L200.57 118.58C200.449 118.717 200.315 118.84 200.17 118.95C200.273 118.801 200.391 118.662 200.52 118.535L201.55 117.405L205.27 113.45V113.49C205.387 112.997 205.469 112.495 205.515 111.99C205.575 111.465 205.63 110.92 205.685 110.36C205.785 109.24 205.89 108.065 206 106.86C206.365 102.975 206.695 99.4551 206.935 96.8601C207.065 95.6051 207.175 94.5801 207.25 93.8301C207.29 93.5001 207.325 93.2251 207.35 93.0101C207.347 92.9109 207.358 92.8118 207.38 92.7151Z" fill="#263238"/>
<path d="M164.38 102.53L160.565 111.03L156.965 106.995L152.16 110.385L157.805 119.44C159.58 121.715 161.275 123.265 163.205 123.02C163.593 122.967 163.975 122.874 164.345 122.745C166.995 121.84 168.82 120.06 169.51 117.345L171.695 106.39L164.38 102.53Z" fill="#DAA520"/>
<path d="M164.775 117.71C164.742 117.592 164.717 117.472 164.7 117.35C164.66 117.12 164.59 116.785 164.495 116.375C164.4 115.965 164.27 115.485 164.1 114.955C163.93 114.425 163.715 113.855 163.46 113.27C163.205 112.685 162.92 112.14 162.65 111.655C162.38 111.17 162.105 110.75 161.87 110.405C161.635 110.06 161.43 109.78 161.29 109.595C161.212 109.502 161.14 109.403 161.075 109.3C161.165 109.382 161.247 109.473 161.32 109.57C161.475 109.75 161.685 110.02 161.93 110.36C162.175 110.7 162.43 111.125 162.735 111.605C163.037 112.131 163.312 112.672 163.56 113.225C163.815 113.815 164.025 114.395 164.195 114.925C164.365 115.455 164.485 115.925 164.57 116.36C164.655 116.795 164.71 117.11 164.74 117.36C164.762 117.475 164.774 117.593 164.775 117.71Z" fill="#263238"/>
<path d="M185.81 48.395L185.78 48.525C185.805 48.5 185.805 48.44 185.81 48.395Z" fill="#263238"/>
<path d="M176.565 72.8502C176.63 71.4902 176.12 70.1752 175.69 68.8802C175.26 67.5852 174.905 66.1852 175.27 64.8802C175.73 63.2302 177.215 62.0802 178.015 60.5602C178.815 59.0402 178.875 57.2452 179.015 55.5302C179.155 53.8152 179.445 51.9952 180.585 50.7002C182.025 49.0602 185.795 48.7652 187.585 50.0302C187.86 59.7902 187.775 69.4552 185.685 78.9952C180.92 79.2002 178.505 78.2702 174.35 75.9402C175.675 75.6552 176.5 74.2152 176.565 72.8502Z" fill="#263238"/>
<path d="M197 79.035L198.725 55.335C198.75 54.8118 198.578 54.2984 198.243 53.8958C197.907 53.4932 197.434 53.2307 196.915 53.16L185.915 50.045C182.375 49.545 179.89 53.875 179.565 57.43C179.205 61.38 178.92 66.22 179.305 69.185C180.08 75.15 184.61 76.035 184.61 76.035C184.515 78.975 184.55 79.035 184.55 79.035L189.405 83.475L197 79.035Z" fill="#FFBF9D"/>
<path d="M181.17 62.59C181.162 62.7883 181.231 62.982 181.364 63.1296C181.497 63.2773 181.682 63.3671 181.88 63.38C181.977 63.3904 182.074 63.3813 182.168 63.3533C182.261 63.3253 182.347 63.2789 182.422 63.217C182.497 63.155 182.559 63.0787 182.604 62.9925C182.649 62.9063 182.677 62.812 182.685 62.715C182.692 62.517 182.622 62.3241 182.489 62.1767C182.357 62.0294 182.172 61.9391 181.975 61.925C181.878 61.9147 181.78 61.9238 181.687 61.9518C181.594 61.9798 181.507 62.0261 181.432 62.0881C181.357 62.15 181.296 62.2264 181.25 62.3126C181.205 62.3988 181.178 62.4931 181.17 62.59Z" fill="#263238"/>
<path d="M180.535 60C180.625 60.1 181.215 59.69 182.035 59.715C182.855 59.74 183.445 60.17 183.535 60.07C183.625 59.97 183.49 59.845 183.235 59.645C182.886 59.39 182.467 59.2486 182.035 59.24C181.609 59.2265 181.191 59.3492 180.84 59.59C180.58 59.755 180.5 59.935 180.535 60Z" fill="#263238"/>
<path d="M188.16 62.7351C188.152 62.9334 188.221 63.1271 188.354 63.2747C188.487 63.4223 188.672 63.5122 188.87 63.5251C188.967 63.5354 189.064 63.5263 189.158 63.4983C189.251 63.4703 189.337 63.424 189.412 63.362C189.487 63.3001 189.549 63.2238 189.594 63.1376C189.639 63.0514 189.667 62.957 189.675 62.8601C189.683 62.6618 189.613 62.4681 189.481 62.3205C189.348 62.1728 189.163 62.083 188.965 62.0701C188.868 62.0591 188.77 62.0677 188.676 62.0954C188.583 62.1231 188.496 62.1694 188.421 62.2315C188.346 62.2936 188.284 62.3702 188.239 62.4567C188.194 62.5432 188.167 62.6379 188.16 62.7351Z" fill="#263238"/>
<path d="M188.585 60.3601C188.68 60.4601 189.27 60.0501 190.085 60.0751C190.9 60.1001 191.495 60.5301 191.585 60.4301C191.675 60.3301 191.54 60.2051 191.285 60.0101C190.937 59.7528 190.518 59.6095 190.085 59.6001C189.66 59.5867 189.241 59.7093 188.89 59.9501C188.635 60.1351 188.54 60.3151 188.585 60.3601Z" fill="#263238"/>
<path d="M185.44 66.3551C185.012 66.2043 184.567 66.1102 184.115 66.0751C183.905 66.0501 183.71 66.0001 183.68 65.8551C183.667 65.639 183.721 65.4241 183.835 65.2401C184.045 64.7401 184.27 64.2401 184.5 63.6651C185.425 61.4201 186.1 59.5751 186 59.5351C185.9 59.4951 185.085 61.2901 184.16 63.5351C183.94 64.0851 183.725 64.6151 183.525 65.1201C183.384 65.3688 183.336 65.6594 183.39 65.9401C183.419 66.0138 183.465 66.0802 183.522 66.1346C183.58 66.1891 183.649 66.2302 183.725 66.2551C183.84 66.2896 183.959 66.3098 184.08 66.3151C184.53 66.3833 184.987 66.3968 185.44 66.3551Z" fill="#263238"/>
<path d="M184.6 76.035C187.39 76.1544 190.159 75.4985 192.6 74.14C192.955 73.32 191.01 77.105 184.555 77.59L184.6 76.035Z" fill="#FF9A6C"/>
<path d="M185.5 68.3051C185.691 68.0384 185.944 67.8228 186.238 67.6772C186.532 67.5316 186.857 67.4605 187.185 67.4701C187.399 67.4794 187.608 67.5407 187.794 67.6488C187.979 67.7568 188.136 67.9082 188.25 68.0901C188.362 68.2954 188.416 68.5274 188.405 68.761C188.394 68.9946 188.32 69.2208 188.19 69.4151C188.036 69.6147 187.825 69.7633 187.585 69.8418C187.345 69.9202 187.087 69.9249 186.845 69.8551C186.394 69.6927 185.988 69.4254 185.66 69.0751C185.555 68.9887 185.47 68.8814 185.41 68.7601C185.38 68.6931 185.369 68.6194 185.376 68.5465C185.384 68.4736 185.411 68.4041 185.455 68.3451" fill="#FF9A6C"/>
<path d="M187.835 67C187.7 67 187.675 67.875 186.895 68.5C186.115 69.125 185.175 69 185.16 69.11C185.145 69.22 185.37 69.29 185.77 69.31C186.29 69.3316 186.801 69.1706 187.215 68.855C187.611 68.5488 187.873 68.1006 187.945 67.605C188 67.21 187.895 67 187.835 67Z" fill="#263238"/>
<path d="M188.32 57C188.395 57.225 189.215 57.145 190.175 57.285C191.135 57.425 191.905 57.715 192.035 57.52C192.095 57.425 191.965 57.21 191.66 56.985C191.249 56.7119 190.78 56.5405 190.29 56.485C189.8 56.411 189.3 56.4538 188.83 56.61C188.47 56.7 188.29 56.87 188.32 57Z" fill="#E0E0E0"/>
<path d="M180.905 57.165C181.045 57.355 181.615 57.165 182.29 57.165C182.965 57.165 183.54 57.325 183.68 57.135C183.74 57.04 183.655 56.855 183.41 56.67C183.081 56.4429 182.689 56.3241 182.29 56.3301C181.89 56.3281 181.499 56.4485 181.17 56.675C180.925 56.885 180.845 57.075 180.905 57.165Z" fill="#263238"/>
<path d="M184.595 50.0001C185.595 47.5601 187.82 47.0451 190.185 46.7901C192.55 46.5351 196.06 47.5151 198.015 48.7901C199.641 49.7804 201.102 51.0187 202.345 52.4601C203.395 53.8151 203.845 55.3601 204.515 56.9201C205.515 59.3501 205.465 62.0351 205.605 64.6451C205.786 67.9242 206.311 71.1753 207.17 74.3451C207.48 75.4851 207.795 76.8451 206.17 77.5001C205.868 77.6171 205.552 77.6944 205.23 77.7301C202.73 78.0301 200.31 78.8451 197.525 79.0201H195.81C193.635 79.0201 192.52 77.6201 192.595 75.8451C192.82 70.4801 195.435 61.6701 195.725 59.9801C195.74 60.0001 196.645 48.4201 184.595 50.0001Z" fill="#263238"/>
<path d="M185.38 49.9501C185.743 50.2529 186.041 50.6261 186.256 51.0472C186.47 51.4683 186.598 51.9285 186.63 52.4001C186.76 53.3351 186.705 54.2951 186.88 55.2201C187.063 56.1497 187.467 57.0216 188.058 57.7622C188.649 58.5028 189.409 59.0903 190.275 59.4751C190.83 59.7101 191.585 59.8101 191.93 59.3151C191.909 59.9744 192.09 60.6243 192.447 61.1788C192.804 61.7333 193.321 62.1662 193.93 62.4201C194.81 62.7751 195.795 62.7151 196.72 62.9201C197.645 63.1251 198.615 63.7601 198.665 64.7101L199.055 58.1151L197.2 52.2851L191.5 48.9001L185.38 49.9501Z" fill="#263238"/>
<path d="M195.5 60.8202C195.308 60.6868 195.126 60.5398 194.955 60.3802C194.526 59.9051 194.217 59.3342 194.055 58.7152C193.827 57.7962 193.695 56.8563 193.66 55.9102C193.616 54.743 193.48 53.5812 193.255 52.4352C193.025 51.2773 192.49 50.2018 191.705 49.3202C191.354 48.9422 190.93 48.6379 190.46 48.4252C190.049 48.2431 189.609 48.1348 189.16 48.1052C188.51 48.0527 187.86 48.2086 187.305 48.5502C187.218 48.6001 187.136 48.6587 187.06 48.7252C187 48.7688 186.944 48.8192 186.895 48.8752C186.85 48.9188 186.808 48.9656 186.77 49.0152C186.942 48.8554 187.127 48.7114 187.325 48.5852C187.879 48.2663 188.518 48.1266 189.155 48.1852C190.111 48.2538 191.006 48.6848 191.655 49.3902C192.415 50.2643 192.933 51.323 193.155 52.4602C193.377 53.6 193.514 54.7549 193.565 55.9152C193.604 56.8694 193.747 57.8166 193.99 58.7402C194.161 59.367 194.486 59.9411 194.935 60.4102C195.099 60.5777 195.29 60.7164 195.5 60.8202Z" fill="white"/>
<path d="M200.43 60.025C200.132 59.9901 199.839 59.9161 199.56 59.805C198.82 59.4465 198.19 58.8934 197.74 58.205C197.414 57.7435 197.135 57.2511 196.905 56.735C196.658 56.1346 196.502 55.5012 196.44 54.855C196.355 54.175 196.33 53.45 196.25 52.7C196.205 52.33 196.155 51.945 196.07 51.565C195.98 51.1788 195.852 50.802 195.69 50.44C195.049 49.0528 193.911 47.9569 192.5 47.37C191.351 46.8998 190.081 46.8139 188.88 47.125C188.073 47.3241 187.317 47.6903 186.66 48.2C186.42 48.3847 186.199 48.5923 186 48.82C186.017 48.8097 186.033 48.7961 186.045 48.78L186.175 48.665C186.23 48.61 186.3 48.545 186.385 48.475C186.47 48.405 186.57 48.315 186.69 48.235C187.348 47.7441 188.101 47.3935 188.9 47.205C190.084 46.9119 191.331 47.0029 192.46 47.465C193.836 48.0451 194.949 49.1136 195.585 50.465C195.742 50.8213 195.866 51.1912 195.955 51.57C196.034 51.9417 196.094 52.3172 196.135 52.695C196.215 53.435 196.245 54.16 196.33 54.85C196.401 55.5047 196.57 56.1451 196.83 56.75C197.065 57.2767 197.352 57.7791 197.685 58.25C198.151 58.9428 198.797 59.4946 199.555 59.845C199.764 59.9244 199.983 59.9781 200.205 60.005H200.38L200.43 60.025Z" fill="#455A64"/>
<path d="M191.93 59.3152C191.93 59.3152 191.93 59.3152 191.93 59.3702C191.93 59.4252 191.93 59.4652 191.93 59.5302C191.93 59.5952 191.93 59.6952 191.965 59.8002C192 59.9052 192.01 60.0252 192.04 60.1602C192.121 60.4894 192.247 60.8057 192.415 61.1002C192.643 61.4917 192.95 61.8321 193.315 62.1002C194.326 62.7617 195.532 63.0597 196.735 62.9452C197.451 62.9102 198.162 62.7996 198.855 62.6152C199.611 62.4257 200.338 62.1329 201.015 61.7452L201.15 61.6652H200.995C200.126 61.5425 199.282 61.2826 198.495 60.8952H198.45L198.415 61.0002C200.181 61.285 201.992 60.9606 203.55 60.0802L203.655 60.0202L203.54 59.9852C202.441 59.6547 201.41 59.1316 200.495 58.4402C199.78 57.8955 199.23 57.1634 198.905 56.3252C198.717 55.7719 198.629 55.1894 198.645 54.6052C198.645 54.4102 198.67 54.2552 198.68 54.1402V54.0002V53.9602C198.681 53.9735 198.681 53.9869 198.68 54.0002V54.1202C198.68 54.2302 198.65 54.3852 198.625 54.5852C198.596 55.1763 198.676 55.7678 198.86 56.3302C199.193 57.1929 199.761 57.9448 200.5 58.5002C201.423 59.2016 202.462 59.7347 203.57 60.0752V59.9802C202.032 60.8432 200.246 61.1604 198.505 60.8802L198.12 60.8152L198.47 60.9852H198.515C199.302 61.3748 200.146 61.638 201.015 61.7652V61.6602C200.345 62.0427 199.627 62.3336 198.88 62.5252C198.195 62.7099 197.493 62.8205 196.785 62.8552C195.603 62.9748 194.415 62.6911 193.415 62.0502C193.05 61.7827 192.746 61.4421 192.52 61.0502C192.353 60.759 192.222 60.4483 192.13 60.1252C192.1 59.9902 192.07 59.8752 192.05 59.7702C192.03 59.6652 192.02 59.5752 192.005 59.5052C191.99 59.4352 192.005 59.3852 191.98 59.3452C191.964 59.3338 191.947 59.3237 191.93 59.3152Z" fill="#455A64"/>
<path d="M204.12 75.545C204.15 75.545 203.79 72.365 203.315 68.455C202.84 64.545 202.425 61.375 202.395 61.375C202.365 61.375 202.725 64.555 203.2 68.465C203.675 72.375 204.085 75.545 204.12 75.545Z" fill="#455A64"/>
<path d="M192.08 120.415C191.609 120.318 191.123 120.32 190.653 120.42C190.183 120.521 189.739 120.719 189.35 121C188.11 121.91 185.985 123.12 183.85 122.7C180.535 122.045 178.735 118.935 179.475 115.2C180.215 111.465 183.05 109.235 186.37 109.89C188.515 110.31 190.025 112.23 190.83 113.545C191.085 113.951 191.421 114.3 191.816 114.571C192.212 114.842 192.659 115.029 193.13 115.12C193.584 115.21 194.052 115.209 194.506 115.117C194.96 115.026 195.391 114.846 195.776 114.588C196.16 114.33 196.49 113.998 196.747 113.613C197.003 113.227 197.181 112.794 197.27 112.34L200.95 90.21L166.29 84.155L142.6 80.05L138.9 101.05C138.525 102.96 140.13 104.655 142.04 105.05C142.51 105.146 142.995 105.144 143.465 105.042C143.934 104.941 144.377 104.742 144.765 104.46C146.005 103.55 148.135 102.34 150.265 102.76C153.585 103.415 155.385 106.525 154.645 110.285C153.905 114.045 151.065 116.25 147.745 115.595C145.605 115.175 144.09 113.255 143.285 111.94C143.03 111.533 142.695 111.183 142.299 110.911C141.904 110.639 141.456 110.452 140.985 110.36C140.531 110.268 140.063 110.267 139.608 110.357C139.153 110.447 138.721 110.627 138.336 110.886C137.952 111.144 137.622 111.477 137.367 111.864C137.112 112.251 136.936 112.685 136.85 113.14L132.41 137.87L167.27 144.005L187.72 147.605L190.22 148.05L194.845 124.585C194.942 124.129 194.948 123.659 194.861 123.201C194.774 122.743 194.597 122.307 194.339 121.919C194.082 121.53 193.749 121.197 193.361 120.939C192.973 120.681 192.538 120.503 192.08 120.415Z" fill="#455A64"/>
<path d="M157.555 106.36C157.56 106.235 157.539 106.11 157.493 105.994C157.447 105.878 157.378 105.772 157.289 105.684C157.2 105.596 157.093 105.528 156.977 105.483C156.86 105.438 156.735 105.419 156.61 105.425C156.32 105.425 155.945 105.46 155.485 105.505C154.29 105.625 150.755 107.365 150.66 108.065C150.596 108.316 150.597 108.578 150.665 108.828C150.732 109.078 150.863 109.306 151.045 109.49C151.045 109.49 150.355 110.405 150.605 111.165C150.825 111.81 151.865 112.035 151.865 112.035C151.865 112.035 151.095 112.93 151.865 113.57C152.14 113.79 152.695 114.215 152.82 114.36C152.87 114.552 152.944 114.736 153.04 114.91C153.213 115.154 153.437 115.357 153.696 115.507C153.954 115.658 154.242 115.75 154.54 115.78H154.74C155.123 115.818 155.506 115.707 155.81 115.47C157.19 114.415 161.1 111.355 161.175 110.505C161.175 110.505 161.92 109.925 161.63 109.32C161.34 108.715 160.225 108.975 160.225 108.975C160.377 108.853 160.486 108.686 160.536 108.498C160.586 108.31 160.575 108.111 160.505 107.93C160.25 107.29 158.275 107.345 157.38 107.465C156.665 107.555 154.675 107.88 154.675 107.88C154.675 107.88 157.325 106.97 157.48 106.52C157.512 106.47 157.537 106.416 157.555 106.36Z" fill="#FFBF9D"/>
<path d="M161.215 110.525C161.132 110.588 161.043 110.643 160.95 110.69C160.775 110.785 160.52 110.92 160.195 111.08C159.555 111.4 158.645 111.8 157.625 112.195C156.605 112.59 155.66 112.905 154.975 113.125C154.635 113.235 154.36 113.315 154.165 113.375C154.067 113.407 153.967 113.432 153.865 113.45C153.959 113.405 154.056 113.366 154.155 113.335L154.955 113.06C155.635 112.825 156.565 112.495 157.59 112.105C158.615 111.715 159.515 111.32 160.165 111.02L160.935 110.655C161.025 110.606 161.119 110.562 161.215 110.525Z" fill="#FF9A6C"/>
<path d="M160.385 108.97C160.291 109.003 160.194 109.024 160.095 109.035C159.91 109.07 159.64 109.12 159.305 109.195C158.64 109.34 157.735 109.59 156.745 109.905C156.245 110.06 155.775 110.2 155.35 110.345C154.925 110.49 154.55 110.65 154.24 110.78C153.93 110.91 153.68 111.035 153.505 111.115C153.419 111.164 153.329 111.204 153.235 111.235L153.3 111.19L153.49 111.08C153.655 110.99 153.9 110.86 154.21 110.72C154.52 110.58 154.895 110.415 155.32 110.26C155.745 110.105 156.22 109.965 156.715 109.81C157.562 109.537 158.424 109.309 159.295 109.125C159.625 109.06 159.9 109.02 160.09 108.995L160.385 108.97Z" fill="#FF9A6C"/>
<path d="M154.715 107.9C154.582 107.99 154.439 108.066 154.29 108.125C154.02 108.25 153.64 108.41 153.22 108.585C152.8 108.76 152.43 108.925 152.16 109.05C152.018 109.124 151.871 109.19 151.72 109.245C151.845 109.143 151.983 109.057 152.13 108.99C152.471 108.803 152.824 108.636 153.185 108.49C153.605 108.315 153.985 108.165 154.26 108.055C154.407 107.99 154.559 107.939 154.715 107.9Z" fill="#FF9A6C"/>
<path d="M159.97 112.075C159.917 112.151 159.856 112.221 159.79 112.285C159.665 112.41 159.48 112.59 159.245 112.785C158.775 113.22 158.095 113.785 157.355 114.4C157.175 114.555 157 114.72 156.815 114.86C156.643 115 156.463 115.129 156.275 115.245C155.957 115.448 155.61 115.6 155.245 115.695C154.999 115.762 154.743 115.784 154.49 115.76C154.421 115.757 154.352 115.749 154.285 115.735H154.215C154.306 115.73 154.398 115.73 154.49 115.735C154.739 115.741 154.987 115.707 155.225 115.635C155.579 115.534 155.916 115.381 156.225 115.18C156.409 115.062 156.585 114.933 156.755 114.795C156.935 114.655 157.105 114.495 157.29 114.335C158.03 113.705 158.72 113.16 159.2 112.745L159.76 112.245C159.826 112.184 159.896 112.127 159.97 112.075Z" fill="#FF9A6C"/>
<path d="M199.175 120.33C199.175 120.33 197.935 119 196.89 118.785C195.845 118.57 194.39 118.755 194.145 118.575C193.9 118.395 193.35 117.685 192.855 118.125C192.36 118.565 191.56 120.32 193.675 121.18L195.175 121.425C194.977 122.132 194.675 122.806 194.28 123.425C193.82 123.96 187.635 129.59 187.635 129.59C187.635 129.59 186.89 130.13 187.105 130.825C187.32 131.52 188.755 131.375 188.755 131.375C188.994 131.665 189.303 131.89 189.653 132.028C190.003 132.166 190.382 132.213 190.755 132.165C191.332 132.063 191.896 131.896 192.435 131.665C192.746 131.994 193.157 132.212 193.604 132.285C194.051 132.358 194.51 132.283 194.91 132.07C196.35 131.315 202.49 125.835 202.49 125.835L200.945 120.39L199.175 120.33Z" fill="#FFBF9D"/>
<path d="M200.61 119.26L199.07 120.335C200.98 122.26 202.43 123.97 202.035 126.28L205.005 125.075C205.005 125.075 205.26 120.455 200.61 119.26Z" fill="#FFBF9D"/>
<path d="M193.42 128.31C192.838 129.042 192.128 129.662 191.325 130.14C190.57 130.687 189.723 131.095 188.825 131.345C188.795 131.27 189.92 130.76 191.185 129.92C192.45 129.08 193.365 128.255 193.42 128.31Z" fill="#FF9A6C"/>
<path d="M195.575 129.5C195.181 130.115 194.668 130.646 194.067 131.063C193.467 131.479 192.79 131.772 192.075 131.925C192.05 131.85 192.95 131.52 193.91 130.845C194.87 130.17 195.5 129.46 195.575 129.5Z" fill="#FF9A6C"/>
<path d="M107.335 91.8899L109.215 90.7649L111.69 97.4349L109.685 98.6749L107.335 91.8899Z" fill="#F5F5F5"/>
<path d="M74.405 48.87C74.2979 46.2849 73.2223 43.8347 71.3919 42.0062C69.5615 40.1776 67.1102 39.1045 64.525 39H63.995C58.225 39.095 55.09 44.05 55.345 49.81L56.075 73.01L65.19 76.51L68.715 73.27C68.715 71.645 68.715 68.27 68.75 68.27C68.785 68.27 74.315 67.64 74.61 62.115C74.755 59.39 74.6 53.865 74.405 48.87Z" fill="#FFBF9D"/>
<path d="M68.75 68.215C66.1949 68.1057 63.7251 67.2639 61.635 65.79C61.635 65.79 63.195 70.02 68.735 69.75L68.75 68.215Z" fill="#FF9A6C"/>
<path d="M72.4998 53.6399C72.4946 53.8463 72.4082 54.0424 72.2594 54.1856C72.1106 54.3288 71.9113 54.4076 71.7048 54.4049C71.6041 54.4096 71.5034 54.3939 71.4089 54.3585C71.3145 54.3232 71.2282 54.2691 71.1552 54.1995C71.0823 54.1298 71.0243 54.0461 70.9847 53.9533C70.9451 53.8606 70.9247 53.7607 70.9248 53.6599C70.93 53.4543 71.0157 53.259 71.1635 53.1159C71.3112 52.9729 71.5092 52.8935 71.7148 52.8949C71.8156 52.8909 71.9162 52.9071 72.0106 52.9426C72.1051 52.9781 72.1914 53.0322 72.2646 53.1016C72.3378 53.1711 72.3963 53.2545 72.4367 53.347C72.4771 53.4394 72.4985 53.539 72.4998 53.6399Z" fill="#263238"/>
<path d="M73.1298 51.2648C73.0248 51.3648 72.4448 50.8948 71.5948 50.8648C70.7448 50.8348 70.0948 51.2298 70.0198 51.1198C69.9448 51.0098 70.0848 50.8898 70.3648 50.7048C70.7415 50.4648 71.1836 50.3477 71.6298 50.3698C72.0724 50.3867 72.498 50.5443 72.8448 50.8198C73.0998 51.0298 73.1798 51.2198 73.1298 51.2648Z" fill="#263238"/>
<path d="M65.1098 53.6399C65.1033 53.8459 65.0165 54.0412 64.868 54.1842C64.7194 54.3271 64.5209 54.4063 64.3148 54.4049C64.214 54.4089 64.1134 54.3927 64.019 54.3572C63.9245 54.3216 63.8382 54.2676 63.765 54.1981C63.6918 54.1287 63.6333 54.0453 63.5929 53.9528C63.5525 53.8604 63.531 53.7608 63.5298 53.6599C63.5375 53.4543 63.6247 53.2597 63.773 53.117C63.9212 52.9744 64.119 52.8947 64.3248 52.8949C64.4256 52.8909 64.5262 52.9071 64.6206 52.9426C64.715 52.9781 64.8014 53.0322 64.8746 53.1016C64.9478 53.1711 65.0063 53.2545 65.0467 53.347C65.0871 53.4394 65.1085 53.539 65.1098 53.6399Z" fill="#263238"/>
<path d="M64.7898 51.1198C64.6898 51.2148 64.1098 50.7498 63.2598 50.7148C62.4098 50.6798 61.7598 51.0848 61.6798 50.9748C61.5998 50.8648 61.7448 50.7448 62.0248 50.5598C62.4034 50.3197 62.847 50.2026 63.2948 50.2248C63.736 50.2442 64.1604 50.3997 64.5098 50.6698C64.7598 50.8848 64.8398 51.0748 64.7898 51.1198Z" fill="#263238"/>
<path d="M67.5699 57.775C68.023 57.6509 68.4901 57.5854 68.9598 57.58C69.1798 57.58 69.3849 57.535 69.4299 57.385C69.4554 57.1629 69.4136 56.9381 69.3098 56.74C69.1298 56.205 68.9349 55.645 68.7349 55.06C67.9399 52.67 67.3748 50.71 67.4748 50.675C67.5748 50.64 68.2898 52.555 69.0848 54.945C69.2748 55.535 69.4598 56.095 69.6298 56.635C69.7584 56.9012 69.7868 57.2047 69.7098 57.49C69.6746 57.5651 69.6231 57.6314 69.5591 57.6841C69.4952 57.7369 69.4203 57.7748 69.3398 57.795C69.2181 57.82 69.0941 57.8317 68.9699 57.83C68.5027 57.8682 68.0326 57.8497 67.5699 57.775Z" fill="#263238"/>
<path d="M65.1749 48.4699C65.0499 48.6849 64.2349 48.4199 63.2349 48.3599C62.2349 48.2999 61.3849 48.4149 61.2949 48.1899C61.2549 48.0799 61.4299 47.8899 61.7949 47.7299C62.2713 47.5382 62.7852 47.458 63.2973 47.4952C63.8094 47.5325 64.3063 47.6863 64.7499 47.9449C65.0849 48.1599 65.2299 48.3699 65.1749 48.4699Z" fill="#263238"/>
<path d="M73.27 48.7699C73.09 48.9549 72.405 48.7399 71.57 48.7049C70.735 48.6699 70.03 48.7949 69.875 48.5899C69.805 48.4899 69.92 48.2999 70.235 48.1249C70.6659 47.9157 71.1428 47.8192 71.6212 47.8445C72.0996 47.8699 72.5636 48.0163 72.97 48.2699C73.26 48.4999 73.35 48.6749 73.27 48.7699Z" fill="#263238"/>
<path d="M55.6298 53.8799C55.5348 53.8349 51.8748 52.5999 51.8398 56.3799C51.8048 60.1599 55.6098 59.4199 55.6198 59.3099C55.6298 59.1999 55.6298 53.8799 55.6298 53.8799Z" fill="#FFBF9D"/>
<path d="M54.4999 57.8698C54.4999 57.8698 54.4349 57.9148 54.3249 57.9648C54.2458 57.9984 54.1608 58.0157 54.0749 58.0157C53.989 58.0157 53.904 57.9984 53.8249 57.9648C53.5815 57.8083 53.3845 57.5893 53.2543 57.3308C53.1242 57.0723 53.0657 56.7836 53.0849 56.4948C53.0777 56.1713 53.1426 55.8502 53.2749 55.5548C53.3126 55.4378 53.3776 55.3314 53.4645 55.2445C53.5515 55.1575 53.6579 55.0925 53.7749 55.0548C53.8505 55.037 53.93 55.0457 54.0001 55.0793C54.0701 55.113 54.1265 55.1696 54.1599 55.2398C54.2099 55.3498 54.1599 55.4248 54.2049 55.4298C54.2499 55.4348 54.2849 55.3648 54.2599 55.2098C54.2388 55.115 54.1858 55.0303 54.1099 54.9698C54.0073 54.8912 53.8783 54.8554 53.7499 54.8698C53.5935 54.8993 53.4474 54.9687 53.3256 55.0711C53.2039 55.1736 53.1106 55.3058 53.0549 55.4548C52.8901 55.7799 52.8077 56.1405 52.8149 56.5048C52.8149 57.2698 53.2149 58.0048 53.7599 58.1498C53.8614 58.1802 53.9685 58.1874 54.0732 58.1709C54.1778 58.1545 54.2775 58.1148 54.3649 58.0548C54.4699 57.9598 54.4999 57.8798 54.4999 57.8698Z" fill="#FF9A6C"/>
<path d="M64.9 58.2999C65.03 58.2999 65.035 59.1599 65.785 59.7999C66.535 60.4399 67.455 60.2999 67.46 60.4349C67.465 60.5699 67.255 60.6049 66.865 60.6149C66.3538 60.6196 65.8576 60.4423 65.465 60.1149C65.0848 59.8079 64.8392 59.3649 64.78 58.8799C64.745 58.4999 64.84 58.2949 64.9 58.2999Z" fill="#263238"/>
<path d="M82.0448 43.8899C81.9777 43.6752 81.8285 43.4955 81.6298 43.3899C81.1904 43.1826 80.7037 43.0963 80.2198 43.1399C79.0136 43.1057 77.8314 42.7943 76.7648 42.2299C77.1408 42.0514 77.4866 41.8152 77.7898 41.5299C78.1163 41.2374 78.3554 40.8602 78.4807 40.4401C78.606 40.0201 78.6126 39.5735 78.4998 39.1499C78.4848 39.0701 78.4505 38.9952 78.3999 38.9316C78.3494 38.868 78.2842 38.8177 78.2098 38.7849C77.9648 38.7049 77.7448 38.9449 77.5698 39.1349C77.348 39.4286 77.0514 39.6572 76.711 39.7971C76.3707 39.9369 75.999 39.9828 75.6348 39.9299C75.1307 39.8911 74.6419 39.739 74.2048 39.4849C74.1856 39.4691 74.1688 39.4506 74.1548 39.4299L73.5848 38.8399C72.1748 37.4099 70.9598 36.4199 69.7048 35.8949C67.8648 35.1299 64.7798 34.7949 62.8448 35.2799C60.9098 35.7649 59.1648 37.2799 58.8748 39.2799C57.8048 38.3499 56.1798 38.3399 54.8748 38.8549H54.8398C53.3698 39.3549 52.5198 40.8999 52.0698 42.3899C52.0698 42.4699 52.0248 42.5549 51.9998 42.6349C51.4957 43.4212 50.8097 44.0746 49.9998 44.5399C49.8598 44.6199 49.6948 44.7199 49.6748 44.8849C49.6819 44.9653 49.7084 45.0427 49.7519 45.1106C49.7954 45.1786 49.8548 45.2349 49.9248 45.2749C50.2771 45.5255 50.6798 45.6961 51.1048 45.7749C50.9665 46.1217 50.7993 46.4563 50.6048 46.7749C50.4398 47.0549 50.2398 47.3899 50.3798 47.6799C50.4386 47.7898 50.5293 47.8792 50.64 47.9364C50.7507 47.9935 50.8762 48.0157 50.9998 47.9999C51.2464 47.9484 51.4797 47.8463 51.6848 47.6999L51.1848 48.8699C51.7163 48.9633 52.2622 48.9325 52.7798 48.7799C53.0748 50.1799 53.2798 52.7799 53.6298 53.7249C54.6298 53.7549 54.8798 53.6499 55.3848 53.8199C56.0398 54.0449 55.7748 55.2049 56.6298 54.8849C57.0648 54.7199 57.7548 53.0849 57.9048 52.6399C58.9042 49.7034 59.2623 46.5866 58.9548 43.4999C59.5736 42.868 60.3065 42.359 61.1148 41.9999L61.0498 42.0599C62.6048 41.5599 64.3598 41.0299 65.8198 41.7699C66.9548 42.3499 67.6098 43.5399 68.4498 44.4899C69.1579 45.3593 70.0423 46.0686 71.0447 46.5711C72.047 47.0736 73.1445 47.3578 74.2648 47.4049C74.4648 49.0749 74.4948 51.8099 74.5598 53.3699L75.9298 50.2649C76.0398 50.0799 76.1298 49.8949 76.2198 49.7149L76.2498 49.6599C76.3831 49.3592 76.5316 49.0655 76.6948 48.7799C76.8782 48.9053 77.0982 48.966 77.32 48.9524C77.5417 48.9389 77.7527 48.8519 77.9195 48.7051C78.0863 48.5583 78.1995 48.3602 78.2412 48.142C78.2829 47.9238 78.2508 47.6979 78.1498 47.4999C78.0215 47.3103 77.8646 47.1417 77.6848 46.9999C77.8733 47.1879 78.1075 47.3237 78.3644 47.3938C78.6212 47.4639 78.8919 47.4661 79.1498 47.3999C79.4019 47.3215 79.6215 47.1627 79.7749 46.9479C79.9284 46.733 80.0074 46.4739 79.9998 46.2099C79.9822 46.0302 79.9174 45.8584 79.8121 45.7118C79.7067 45.5651 79.5645 45.4489 79.3998 45.3749C80.0924 45.4401 80.7887 45.2973 81.3998 44.9649C81.7848 44.7449 82.1748 44.3849 82.0448 43.8899Z" fill="#263238"/>
<path d="M60.6099 39.9351C60.4101 40.0864 60.2228 40.2536 60.0499 40.4351C59.6065 40.9595 59.3067 41.5901 59.1799 42.2651C59.0774 42.7265 59.0238 43.1974 59.0199 43.6701C59.0199 44.1701 59.0499 44.7301 59.0799 45.3051C59.1177 45.9095 59.1177 46.5156 59.0799 47.1201C59.0595 47.443 59.0143 47.764 58.9449 48.0801C58.8914 48.4171 58.7538 48.7352 58.5449 49.0051C58.4473 49.1119 58.3237 49.1916 58.1861 49.2363C58.0485 49.281 57.9016 49.2892 57.7599 49.2601C57.4892 49.2036 57.2438 49.0616 57.0599 48.8551C56.7726 48.4351 56.6002 47.9473 56.5599 47.4401H56.6799C56.5078 47.8553 56.2752 48.2428 55.9899 48.5901C55.7167 48.9154 55.3275 49.1216 54.9049 49.1651C54.7089 49.1816 54.5121 49.1454 54.3349 49.0601C54.1743 48.9704 54.0425 48.8368 53.9549 48.6751C53.8707 48.5224 53.8308 48.3492 53.8399 48.1751C53.8496 48.0145 53.915 47.8625 54.0249 47.7451L54.0799 47.8001C53.7468 48.1751 53.3377 48.4751 52.8799 48.6801C52.7249 48.7501 52.5949 48.7901 52.5099 48.8201C52.4674 48.8334 52.4239 48.8435 52.3799 48.8501L52.5049 48.7951C52.5849 48.7651 52.7099 48.7151 52.8649 48.6401C53.307 48.4237 53.7014 48.1211 54.0249 47.7501L54.0799 47.8001C53.9865 47.9154 53.9319 48.0571 53.9239 48.2053C53.9158 48.3534 53.9546 48.5003 54.0349 48.6251C54.1154 48.7688 54.235 48.8867 54.3799 48.9651C54.536 49.0376 54.7082 49.0686 54.8799 49.0551C55.2703 49.0069 55.6278 48.812 55.8799 48.5101C56.1544 48.168 56.3768 47.7872 56.5399 47.3801L56.6249 47.2051L56.6599 47.3951C56.7036 47.883 56.8761 48.3507 57.1599 48.7501C57.3235 48.9348 57.5429 49.0612 57.7849 49.1101C57.9056 49.136 58.031 49.1299 58.1486 49.0921C58.2662 49.0544 58.3718 48.9864 58.4549 48.8951C58.6499 48.643 58.7773 48.3452 58.8249 48.0301C58.8919 47.722 58.937 47.4095 58.9599 47.0951C58.9976 46.494 58.9976 45.8911 58.9599 45.2901C58.9299 44.7151 58.8999 44.1651 58.9149 43.6501C58.9235 43.1703 58.9822 42.6927 59.0899 42.2251C59.2276 41.5473 59.5414 40.9179 59.9999 40.4001C60.1741 40.2101 60.3806 40.0527 60.6099 39.9351Z" fill="#455A64"/>
<path d="M77.6898 45.4999L77.6448 45.5349L77.5048 45.6349C77.4294 45.6893 77.3509 45.7394 77.2698 45.7849C77.1596 45.8475 77.0461 45.9043 76.9298 45.9549C76.1841 46.285 75.3675 46.4225 74.5548 46.3549C73.3451 46.2637 72.188 45.8225 71.2248 45.0849C70.0617 44.1748 69.097 43.0365 68.3898 41.7399C67.9948 41.0649 67.6698 40.3749 67.3198 39.7399C66.9951 39.1187 66.5844 38.5464 66.0998 38.0399C65.6641 37.5785 65.1189 37.2345 64.5148 37.0399C64.2419 36.9617 63.9586 36.9263 63.6748 36.9349C63.4114 36.9468 63.1507 36.9939 62.8998 37.0749C62.4687 37.2187 62.072 37.4502 61.7348 37.7549C61.4823 37.9871 61.2695 38.259 61.1048 38.5599C60.9702 38.8223 60.871 39.1014 60.8098 39.3899C60.8098 39.3899 60.8098 39.3899 60.8098 39.3299C60.8098 39.2699 60.8098 39.2299 60.8348 39.1599C60.883 38.9436 60.9569 38.7337 61.0548 38.5349C61.2162 38.2245 61.4293 37.9439 61.6848 37.7049C62.0255 37.3887 62.4294 37.1484 62.8698 36.9999C63.1288 36.9151 63.3977 36.8646 63.6698 36.8499C63.9652 36.8388 64.2605 36.8742 64.5448 36.9549C65.1663 37.1463 65.7301 37.4901 66.1848 37.9549C66.6792 38.4682 67.0984 39.049 67.4298 39.6799C67.7898 40.3199 68.1098 41.0099 68.4998 41.6799C69.2018 42.9612 70.1519 44.0898 71.2948 44.9999C72.2387 45.7286 73.3719 46.1711 74.5598 46.2749C75.3603 46.3472 76.1664 46.2254 76.9098 45.9199C77.1773 45.7944 77.4377 45.6542 77.6898 45.4999Z" fill="#455A64"/>
<path d="M78.22 43.09C78.22 43.09 78.155 43.145 78.02 43.225C77.8312 43.3385 77.634 43.4371 77.43 43.52C77.127 43.644 76.8143 43.7426 76.495 43.815C76.1014 43.8967 75.7017 43.9452 75.3 43.96C74.898 43.9631 74.4965 43.9313 74.1 43.865C73.7782 43.8053 73.462 43.7183 73.155 43.605C72.9486 43.5318 72.748 43.4432 72.555 43.34C72.4791 43.3069 72.4084 43.2631 72.345 43.21C72.345 43.21 72.66 43.35 73.185 43.52C73.4923 43.6182 73.8065 43.6934 74.125 43.745C74.5136 43.8055 74.9066 43.8339 75.3 43.83C75.6931 43.8181 76.0845 43.773 76.47 43.695C76.7842 43.6308 77.0933 43.5439 77.395 43.435C77.91 43.24 78.21 43.07 78.22 43.09Z" fill="#455A64"/>
<path d="M72.1999 216.5L72.2799 227.225C72.2799 227.225 83.2049 230.725 83.4149 232.725L62.6249 233.625L61.8149 216.92L72.1999 216.5Z" fill="#263238"/>
<path d="M65.8099 226.615C65.6121 226.686 65.4472 226.827 65.3467 227.011C65.2462 227.195 65.2171 227.41 65.2649 227.615C65.3275 227.819 65.4669 227.99 65.6535 228.092C65.8402 228.195 66.0594 228.221 66.2649 228.165C66.4739 228.091 66.6481 227.942 66.7543 227.747C66.8604 227.553 66.8909 227.326 66.8399 227.11C66.7546 226.907 66.5935 226.745 66.3908 226.66C66.1882 226.574 65.9601 226.57 65.7549 226.65" fill="#E0E0E0"/>
<path d="M62.625 233.64V231.955L82.565 231.72C82.565 231.72 83.505 232.085 83.43 232.72L62.625 233.64Z" fill="#455A64"/>
<path d="M72.61 227.12C72.61 227.22 72.11 227.29 71.61 227.62C71.11 227.95 70.88 228.405 70.785 228.37C70.69 228.335 70.815 227.74 71.41 227.33C72.005 226.92 72.63 227.025 72.61 227.12Z" fill="white"/>
<path d="M74.8299 227.925C74.8599 228.025 74.4249 228.215 74.0999 228.66C73.7749 229.105 73.6949 229.56 73.5999 229.56C73.5049 229.56 73.4099 228.99 73.8299 228.445C74.2499 227.9 74.8249 227.83 74.8299 227.925Z" fill="white"/>
<path d="M76.1798 230.5C76.0898 230.525 75.9298 230.025 76.1798 229.46C76.4298 228.895 76.8798 228.65 76.9298 228.73C76.9798 228.81 76.6948 229.125 76.5048 229.595C76.3148 230.065 76.2848 230.465 76.1798 230.5Z" fill="white"/>
<path d="M72.3198 224.675C72.2848 224.77 71.8198 224.65 71.2398 224.715C70.6598 224.78 70.2398 224.98 70.1698 224.895C70.0998 224.81 70.5298 224.43 71.2048 224.36C71.8798 224.29 72.3698 224.595 72.3198 224.675Z" fill="white"/>
<path d="M48.095 218.795L46.965 231.725L49.025 242.225C49.06 242.404 49.0579 242.588 49.0187 242.766C48.9795 242.944 48.9041 243.112 48.7971 243.26C48.6902 243.408 48.5541 243.532 48.3972 243.625C48.2403 243.718 48.0659 243.777 47.885 243.8C47.6745 243.827 47.4606 243.803 47.2613 243.729C47.0621 243.656 46.8833 243.537 46.74 243.38C44.89 241.38 38.105 233.88 38.24 232.945C38.395 231.855 38.52 219.235 38.52 219.235L48.095 218.795Z" fill="#263238"/>
<path d="M47.885 243.78L38.295 232.055L38.26 232.6C38.2285 233.074 38.3668 233.544 38.65 233.925C39.41 234.925 41.57 237.715 46.705 243.36C46.8515 243.522 47.0361 243.646 47.242 243.719C47.448 243.792 47.6689 243.813 47.885 243.78Z" fill="#455A64"/>
<g opacity="0.6">
<path d="M41.2199 228.045C41.3719 228.173 41.4712 228.352 41.4989 228.549C41.5266 228.745 41.4807 228.945 41.3699 229.11C41.2489 229.266 41.0724 229.37 40.8769 229.4C40.6815 229.43 40.482 229.383 40.3199 229.27C40.1599 229.135 40.0556 228.945 40.027 228.737C39.9984 228.529 40.0475 228.319 40.1649 228.145C40.3075 227.994 40.5034 227.905 40.7108 227.896C40.9182 227.888 41.1207 227.961 41.2749 228.1" fill="white"/>
</g>
<path d="M45.2898 237.93C45.6298 237.545 46.0406 237.229 46.4998 237C46.9829 236.84 47.4923 236.776 47.9998 236.81C47.9998 236.775 47.8548 236.665 47.5548 236.605C47.1589 236.532 46.7504 236.578 46.3798 236.735C46.0033 236.892 45.6827 237.158 45.4598 237.5C45.2898 237.73 45.2548 237.92 45.2898 237.93Z" fill="white"/>
<path d="M46.0998 239.725C46.4847 239.535 46.8804 239.368 47.2848 239.225C47.708 239.175 48.1337 239.149 48.5598 239.145C48.3684 239.007 48.1468 238.918 47.9136 238.884C47.6804 238.85 47.4424 238.873 47.2198 238.95C46.4398 239.14 46.0348 239.685 46.0998 239.725Z" fill="white"/>
<path d="M43.7148 235.6C44.2871 235.265 44.8838 234.974 45.4998 234.73C46.1408 234.573 46.7926 234.464 47.4498 234.405C46.7796 234.229 46.0732 234.249 45.4134 234.46C44.7537 234.672 44.168 235.067 43.7248 235.6H43.7148Z" fill="white"/>
<path d="M43.73 231.64C43.76 231.72 44.495 231.47 45.425 231.495C46.355 231.52 47.08 231.79 47.115 231.715C46.6311 231.352 46.0334 231.175 45.43 231.215C44.8311 231.154 44.2299 231.305 43.73 231.64Z" fill="white"/>
<path d="M43.965 227.84C44.5393 227.69 45.1318 227.623 45.725 227.64C46.3104 227.742 46.879 227.924 47.415 228.18C47.415 228.155 47.305 227.98 47.02 227.79C46.6382 227.548 46.2049 227.399 45.755 227.355C45.3053 227.308 44.8508 227.369 44.43 227.535C44.11 227.665 43.945 227.81 43.965 227.84Z" fill="white"/>
<path d="M45.7498 226.915C45.8008 226.754 45.8179 226.583 45.7998 226.415C45.7847 225.962 45.6793 225.517 45.4898 225.105C45.3793 224.792 45.1683 224.525 44.8898 224.345C44.7922 224.294 44.6813 224.274 44.5721 224.288C44.463 224.303 44.3609 224.35 44.2798 224.425C44.1338 224.58 44.0486 224.782 44.0398 224.995C44.0405 225.432 44.1937 225.855 44.4731 226.191C44.7524 226.527 45.1403 226.755 45.5698 226.835C45.9959 226.907 46.4338 226.851 46.8276 226.673C47.2213 226.494 47.5529 226.203 47.7798 225.835C47.8377 225.743 47.8748 225.639 47.8886 225.531C47.9024 225.423 47.8926 225.314 47.8598 225.21C47.8146 225.11 47.7392 225.026 47.6443 224.97C47.5493 224.915 47.4394 224.89 47.3298 224.9C47.0059 224.948 46.7005 225.081 46.4448 225.285C46.0746 225.541 45.7543 225.863 45.4998 226.235C45.3945 226.363 45.3163 226.511 45.2698 226.67C45.6397 226.206 46.0741 225.796 46.5598 225.455C46.7887 225.288 47.0545 225.178 47.3348 225.135C47.3951 225.127 47.4563 225.14 47.5088 225.17C47.5613 225.201 47.6021 225.249 47.6248 225.305C47.6418 225.374 47.6439 225.446 47.6309 225.516C47.618 225.585 47.5903 225.652 47.5498 225.71C47.3441 226.021 47.0531 226.266 46.7117 226.416C46.3703 226.566 45.9929 226.614 45.6248 226.555C45.2622 226.486 44.9337 226.296 44.693 226.017C44.4523 225.737 44.3137 225.384 44.2998 225.015C44.3032 224.865 44.3579 224.72 44.4548 224.605C44.4985 224.563 44.5546 224.536 44.6149 224.527C44.6752 224.519 44.7365 224.531 44.7898 224.56C45.017 224.716 45.1913 224.937 45.2898 225.195C45.5436 225.737 45.6993 226.319 45.7498 226.915Z" fill="white"/>
<path d="M83.1949 127.605C84.1946 132.047 84.5316 136.614 84.1949 141.155C83.9699 144.035 74.2549 223.7 74.2549 223.7H61.1399L64.8249 148.825L63.7549 149.06C63.7549 149.06 56.5899 181 55.9999 186.165C55.4999 190.81 49.0499 227.34 49.0499 227.34L36.6699 227.205L41.2749 180.055L45.7349 137.205L47.4099 124.705L83.1949 127.605Z" fill="#263238"/>
<path d="M107.35 90.7648L94.6048 97.0698L87.3948 78.2898C86.7385 76.6826 85.7009 75.2591 84.3716 74.1424C83.0423 73.0256 81.4612 72.2491 79.7648 71.8798C79.3297 71.789 78.8885 71.7305 78.4448 71.7048L83.5998 101.705C84.6124 104.159 85.9584 106.463 87.5998 108.55C88.6748 109.845 90.8148 111.205 95.5498 109.72L110.78 99.5248L107.35 90.7648Z" fill="#263238"/>
<path d="M55.4249 68.05L61.7349 73.295L64.9549 75.795L66.5849 75.565L67.4849 73.105L68.6999 68.31L70.3999 70.555L74.9999 80.32L80.1649 127.555C80.1649 127.555 71.1649 130.195 66.4949 130.51C61.8249 130.825 54.3999 129.555 54.3999 129.555V104.7L51.7549 80.085L54.9499 70.655L55.4249 68.05Z" fill="#F5F5F5"/>
<path d="M68.7599 130.195C68.7536 130.152 68.7536 130.108 68.7599 130.065C68.7599 129.965 68.7599 129.84 68.7599 129.675C68.7599 129.32 68.7299 128.82 68.7049 128.175C68.6599 126.86 68.5999 124.985 68.5199 122.675C68.3599 118.025 68.1049 111.605 67.7399 104.52C67.3749 97.435 66.9599 91.02 66.6399 86.38L66.2599 80.88C66.2149 80.24 66.1799 79.74 66.1599 79.38C66.1599 79.215 66.1599 79.09 66.1599 78.99C66.1599 78.89 66.1599 78.86 66.1599 78.855C66.1653 78.8998 66.1653 78.9451 66.1599 78.99C66.1599 79.085 66.1599 79.215 66.2049 79.375C66.2349 79.73 66.2799 80.23 66.3399 80.875C66.4549 82.17 66.6099 84.045 66.7849 86.375C67.1399 91.01 67.5699 97.42 67.9349 104.51C68.2999 111.6 68.5349 118.01 68.6599 122.67C68.7249 124.995 68.7699 126.875 68.7849 128.17C68.7849 128.815 68.7849 129.315 68.7849 129.67V130.06C68.7649 130.15 68.7599 130.195 68.7599 130.195Z" fill="#263238"/>
<path d="M52.3 72.9L52.75 72.66L43.75 77.375L47.15 100.655L49.04 112.655L42 141.115C42 141.115 47.29 144.57 49.94 143.89C51.355 143.525 52.565 140.68 53.5 138.44C55.3714 133.972 56.5857 129.256 57.105 124.44C57.605 119.595 58.105 113.44 57.76 109.23C57.1 101.395 56.065 88.47 55.97 85.07C55.875 81.67 55.075 69.145 55.075 69.145L52.3 72.9Z" fill="#263238"/>
<path d="M68.9099 68.085L74.1399 70.92L78.7299 71.705L84.9199 85.255L83.7399 109.755L89.9199 140C89.9199 140 85.3899 141.605 83.5949 140.945C81.7999 140.285 79.3499 136.225 79.2549 133.77C79.1599 131.315 75.6699 107.535 75.6699 107.535L72.6999 79.58C72.419 76.9146 71.6745 74.3189 70.4999 71.91L68.9099 68.085Z" fill="#263238"/>
<path d="M74.1399 71.7048C74.1995 71.764 74.2547 71.8275 74.3049 71.8948L74.7749 72.4648L76.5049 74.6348L76.5399 74.6798L76.4949 74.7148L75.0249 75.8298V75.7098L76.7499 76.2548H76.7999V76.3148C76.7699 79.3798 76.7299 83.2448 76.6849 87.4348C76.6099 92.5498 76.5399 97.1748 76.4899 100.545C76.4599 102.21 76.4299 103.545 76.4099 104.515C76.4099 104.97 76.4099 105.335 76.3799 105.595C76.3799 105.71 76.3799 105.8 76.3799 105.875C76.3799 105.95 76.3799 105.97 76.3799 105.97C76.3799 105.97 76.3799 105.94 76.3799 105.875C76.3799 105.81 76.3799 105.71 76.3799 105.595C76.3799 105.33 76.3799 104.97 76.3799 104.515C76.3799 103.56 76.3799 102.205 76.3799 100.54C76.4149 97.1748 76.4599 92.5398 76.5149 87.4298C76.5749 83.2448 76.6299 79.3798 76.6699 76.3098L76.7249 76.3848L75.0099 75.8248L74.8799 75.7848L74.9899 75.7048L76.4899 74.6048V74.6898L74.7999 72.4898L74.3549 71.8998C74.2784 71.8404 74.2065 71.7752 74.1399 71.7048Z" fill="#455A64"/>
<path d="M57.3548 104.355C57.3385 104.327 57.3267 104.297 57.3198 104.265L57.2298 103.99L56.8848 102.93C56.5848 102.015 56.1348 100.69 55.5598 99.06L54.6098 96.4C54.2344 95.3842 53.9123 94.3494 53.6448 93.3C53.0642 90.8924 52.6119 88.4556 52.2898 86C51.8248 82.6 51.5198 79.39 51.3398 76.635V76.595L51.3698 76.565L52.8698 75.135V75.255L51.4598 74.185L51.4098 74.14L51.4498 74.085L53.9898 70.64L54.6848 69.71L54.8748 69.475C54.8946 69.4469 54.9163 69.4201 54.9398 69.395C54.9398 69.395 54.9398 69.43 54.8898 69.485L54.7198 69.735L54.0498 70.69L51.5498 74.19V74.09L52.9648 75.15L53.0398 75.205L52.9748 75.265L51.4748 76.71L51.4998 76.64C51.6998 79.395 51.9998 82.6 52.4998 85.995C52.8184 88.4478 53.2623 90.8827 53.8298 93.29C54.1165 94.3934 54.4315 95.4234 54.7748 96.38L55.7048 99.05C56.2648 100.685 56.7048 102.015 56.9698 102.94C57.1098 103.405 57.2148 103.765 57.2798 104.01C57.3098 104.125 57.3348 104.22 57.3498 104.29C57.3648 104.36 57.3548 104.355 57.3548 104.355Z" fill="#455A64"/>
<path d="M80.4949 121.42L81.6199 124.915L87.9899 124.33L86.0049 120.985L80.4949 121.42Z" fill="#263238"/>
<path d="M80.5 121.42C80.5 121.42 80.625 121.42 80.88 121.37L81.995 121.26C82.96 121.17 84.35 121.04 85.995 120.9H86.045L86.075 120.95L88.075 124.285L88.15 124.415H88L87.67 124.445L81.63 125H81.57V124.945C81.225 123.85 80.96 122.945 80.78 122.355C80.7 122.07 80.63 121.855 80.575 121.66C80.5499 121.583 80.5298 121.504 80.515 121.425C80.5541 121.508 80.5875 121.593 80.615 121.68L80.86 122.385C81.075 123.01 81.36 123.885 81.715 124.885L81.635 124.83L87.675 124.25L88 124.22L87.925 124.365L85.95 121.02L86.03 121.065C84.42 121.185 83.03 121.27 82.08 121.33L80.94 121.395C80.655 121.42 80.5 121.425 80.5 121.42Z" fill="#455A64"/>
<g opacity="0.3">
<path d="M76.705 76.325L77.755 77.775C77.755 77.775 77.46 99.745 76.345 105.2L76.705 76.325Z" fill="black"/>
</g>
<path d="M55.4248 72.655C55.5349 72.8271 55.6678 72.9836 55.8198 73.12C56.0898 73.405 56.4848 73.81 56.9798 74.31C57.9798 75.31 59.3448 76.655 60.8848 78.135L61.8848 79.135L62.0548 79.3L62.1348 79.08C62.6348 77.69 63.1348 76.43 63.4948 75.39L63.3098 75.43L64.6098 76.6C64.7595 76.7519 64.9275 76.8845 65.1098 76.995C64.9907 76.8104 64.8478 76.6423 64.6848 76.495C64.3998 76.2 63.9798 75.775 63.4548 75.255L63.3348 75.135L63.2698 75.295C62.8698 76.33 62.3798 77.58 61.8398 78.96L62.0898 78.905L61.0898 77.905C59.5498 76.405 58.1448 75.095 57.1148 74.145C56.6148 73.645 56.1848 73.285 55.8898 73.03C55.7517 72.8855 55.5953 72.7594 55.4248 72.655Z" fill="#263238"/>
<path d="M67.22 76.53C67.585 75.8903 67.8961 75.2214 68.15 74.53L67.945 74.565C68.6917 75.5384 69.307 76.6059 69.775 77.74C69.86 77.935 69.93 78.13 70 78.315L70.17 78.775L70.3 78.305C70.633 77.08 70.816 75.8191 70.845 74.55C70.883 74.0345 70.8493 73.5163 70.745 73.01C70.6815 73.5177 70.6448 74.0284 70.635 74.54C70.543 75.7847 70.3287 77.0173 69.995 78.22H70.295C70.225 78.03 70.15 77.83 70.065 77.63C69.5876 76.4686 68.9369 75.3863 68.135 74.42L68 74.26L67.925 74.45C67.6344 75.1232 67.3986 75.8188 67.22 76.53Z" fill="#263238"/>
<path d="M68.355 77.7999L67.11 79.6349H65.24L64.24 77.7999L65.195 75.7849L66.825 75.5549L68.355 77.7999Z" fill="#DAA520"/>
<path d="M67.1798 78.7L72.8198 121.285L67.9998 127.82L63.1748 120.89L65.3098 78.7H67.1798Z" fill="#DAA520"/>
<path d="M78.1598 125C78.1527 125.314 78.1728 125.629 78.2198 125.94C78.2948 126.6 78.3898 127.44 78.5048 128.485C78.6198 129.53 78.7948 130.855 78.9698 132.26C79.1899 133.807 79.5703 135.327 80.1048 136.795C80.6898 138.33 81.4498 139.84 82.7448 140.64C83.3564 140.979 84.0459 141.151 84.7448 141.14C85.3415 141.144 85.9373 141.094 86.5248 140.99C87.3728 140.85 88.2086 140.644 89.0248 140.375C89.3299 140.293 89.625 140.177 89.9048 140.03C89.5955 140.088 89.2899 140.165 88.9898 140.26C88.1668 140.475 87.3321 140.642 86.4898 140.76C85.9141 140.847 85.3319 140.884 84.7498 140.87C84.0946 140.879 83.4484 140.717 82.8748 140.4C81.6998 139.665 80.9448 138.2 80.3748 136.69C79.2098 133.615 79.0548 130.595 78.6998 128.465C78.5448 127.435 78.4148 126.585 78.3148 125.93C78.2888 125.616 78.237 125.305 78.1598 125Z" fill="#455A64"/>
<path d="M57.4399 126.25C57.4383 126.345 57.4232 126.439 57.395 126.53L57.2 127.33C57.03 128.02 56.76 129.015 56.41 130.24C55.5183 133.436 54.4381 136.577 53.1749 139.645C52.8044 140.521 52.3785 141.373 51.9 142.195C51.6705 142.591 51.4044 142.964 51.1049 143.31L50.8699 143.55C50.7799 143.625 50.685 143.69 50.595 143.76C50.4958 143.824 50.3902 143.878 50.2799 143.92C50.1749 143.955 50.0649 143.965 49.9599 143.99C49.1525 144.11 48.3287 144.053 47.5449 143.825C46.8609 143.647 46.1922 143.414 45.5449 143.13C44.622 142.728 43.7282 142.261 42.8699 141.735C42.5649 141.55 42.33 141.395 42.18 141.29C42.0967 141.241 42.0195 141.182 41.95 141.115C42.0401 141.147 42.1258 141.191 42.205 141.245L42.9199 141.645C43.793 142.135 44.6928 142.575 45.615 142.965C46.2518 143.229 46.9068 143.446 47.575 143.615C48.3263 143.825 49.1137 143.873 49.8849 143.755C50.286 143.689 50.6451 143.468 50.8849 143.14C51.1726 142.804 51.4286 142.443 51.65 142.06C52.1185 141.254 52.5359 140.419 52.9 139.56C54.1585 136.5 55.2599 133.377 56.2 130.205C56.56 129.015 56.8549 128.04 57.07 127.32C57.1666 127.007 57.2466 126.747 57.31 126.54C57.3425 126.439 57.386 126.342 57.4399 126.25Z" fill="#455A64"/>
<path d="M47.5499 75.5C47.5499 75.5 39.815 77.235 38.83 83.885C37.695 91.54 36.7 109.06 36.7 109.06L49.9599 91.305" fill="#263238"/>
<path d="M45.085 77.0249C45.085 77.0249 45.425 77.3299 45.935 77.8549C47.2687 79.2299 48.1932 80.9491 48.605 82.8199C48.76 83.5349 48.795 83.9899 48.825 83.9899C48.8427 83.8823 48.8427 83.7725 48.825 83.6649C48.8105 83.3728 48.7754 83.0821 48.72 82.7949C48.3689 80.8783 47.4244 79.1205 46.02 77.7699C45.8094 77.5653 45.5856 77.3749 45.35 77.1999C45.2697 77.1302 45.1806 77.0714 45.085 77.0249Z" fill="#263238"/>
<path d="M84.67 80.915C84.585 80.915 84.315 87.1 84.075 94.735C83.835 102.37 83.705 108.56 83.795 108.56C83.885 108.56 84.145 102.38 84.39 94.745C84.635 87.11 84.755 80.92 84.67 80.915Z" fill="#455A64"/>
<path d="M43.7649 77.375C43.7649 77.375 40.1649 79.805 39.7649 81.77C39.4249 83.36 36.5799 107.27 36.2149 110.24C35.8499 113.21 34.4349 119.4 38.0649 121.865C40.5049 123.52 48.2149 125.18 48.2149 125.18C47.4549 121.625 49.0099 119.025 52.8049 117.055L47.6499 112.19L49.9599 91.305L43.7649 77.375Z" fill="#263238"/>
<path d="M49.0549 112.645C48.9649 112.645 47.7049 106.145 46.2399 98.1C44.7749 90.055 43.6549 83.5 43.7399 83.5C43.8249 83.5 45.0899 90 46.5599 98.045C48.0299 106.09 49.1399 112.625 49.0549 112.645Z" fill="#455A64"/>
<path d="M48.0599 107.855C48.0855 108.269 48.0737 108.684 48.0249 109.095C47.9749 109.87 47.8849 110.955 47.7749 112.205L47.7399 112.1L48.7399 113.03C49.8849 114.115 50.9099 115.11 51.6449 115.84C52.0603 116.213 52.4449 116.62 52.7949 117.055C52.3422 116.727 51.9159 116.364 51.5199 115.97C50.7499 115.28 49.7049 114.305 48.5599 113.22L47.5599 112.285L47.5149 112.24V112.18C47.6399 110.935 47.7549 109.85 47.8499 109.08C47.882 108.666 47.9523 108.256 48.0599 107.855Z" fill="#455A64"/>
<path d="M42.5 115.275C43.0282 114.396 43.7945 113.686 44.71 113.225C45.5822 112.687 46.5905 112.411 47.615 112.43C46.6542 112.659 45.7218 112.995 44.835 113.43C43.9919 113.958 43.209 114.577 42.5 115.275Z" fill="#455A64"/>
<path d="M60.025 94.76C59.9976 95.2203 59.8795 95.6708 59.6775 96.0853C59.4755 96.4999 59.1935 96.8705 58.8479 97.1758C58.5022 97.481 58.0995 97.715 57.6631 97.8641C57.2268 98.0133 56.7652 98.0748 56.305 98.045C55.8236 98.0201 55.3527 97.8952 54.9222 97.6783C54.4918 97.4613 54.1113 97.1571 53.805 96.785C52.84 95.595 51.095 93.895 48.925 93.785C45.565 93.575 43.05 96.12 42.81 99.93C42.57 103.74 44.755 106.575 48.12 106.785C50.29 106.92 52.23 105.45 53.335 104.39C53.682 104.06 54.0934 103.806 54.5435 103.644C54.9936 103.481 55.4725 103.413 55.95 103.445C56.4103 103.472 56.8608 103.59 57.2753 103.792C57.6899 103.994 58.0605 104.276 58.3658 104.622C58.671 104.968 58.905 105.37 59.0542 105.807C59.2033 106.243 59.2648 106.705 59.235 107.165L57.735 130.935L110.63 133.185L111.775 108.185C111.802 107.725 111.92 107.274 112.122 106.86C112.324 106.445 112.606 106.074 112.952 105.769C113.298 105.464 113.7 105.23 114.137 105.081C114.573 104.932 115.035 104.87 115.495 104.9C115.976 104.925 116.447 105.05 116.878 105.267C117.308 105.484 117.689 105.788 117.995 106.16C118.96 107.35 120.705 109.05 122.875 109.185C126.235 109.395 128.755 106.85 128.99 103.04C129.225 99.23 127.045 96.395 123.685 96.185C121.515 96.05 119.57 97.52 118.465 98.58C118.118 98.91 117.707 99.1644 117.257 99.3271C116.807 99.4898 116.328 99.5572 115.85 99.525C113.915 99.405 112.115 97.94 112.235 96.025L113.135 74.805L60.755 72.575L60.025 94.76Z" fill="#DAA520"/>
<path d="M53.5748 118.785C53.5748 118.785 55.1348 117.575 56.2948 117.525C57.4548 117.475 58.9648 117.93 59.2648 117.78C59.5648 117.63 60.2648 116.965 60.7248 117.52C61.1848 118.075 61.7248 120.095 59.3148 120.65H57.6548C57.7398 121.447 57.9437 122.228 58.2598 122.965C58.6598 123.62 64.2998 130.72 64.2998 130.72C64.2998 130.72 65.0048 131.425 64.6548 132.13C64.3048 132.835 62.7898 132.43 62.7898 132.43C62.4855 132.698 62.1181 132.885 61.7219 132.972C61.3257 133.06 60.9138 133.045 60.5248 132.93C59.9256 132.729 59.3518 132.458 58.8148 132.125C58.4246 132.424 57.9466 132.586 57.4548 132.586C56.9631 132.586 56.485 132.424 56.0948 132.125C54.6848 131.07 49.0598 124.125 49.0598 124.125L51.6598 118.57L53.5748 118.785Z" fill="#FFBF9D"/>
<path d="M51.9998 117.5L53.5998 118.775C51.2248 120.505 49.9898 122.625 50.0048 125.17L47.9598 123.755C47.9598 123.755 47.5898 118.535 51.9998 117.5Z" fill="#F5F5F5"/>
<path d="M58.4348 127.82C58.4998 127.77 59.3448 128.9 60.5498 130.135C61.7548 131.37 62.8848 132.225 62.8298 132.295C62.5469 132.167 62.2841 131.999 62.0498 131.795C61.4525 131.347 60.8893 130.856 60.3648 130.325C59.8438 129.791 59.3625 129.219 58.9248 128.615C58.721 128.377 58.5556 128.109 58.4348 127.82Z" fill="#FF9A6C"/>
<path d="M55.6399 129.23C55.7049 129.175 56.3299 129.93 57.2549 130.675C57.8638 131.084 58.4011 131.591 58.8449 132.175C58.2292 131.785 57.6442 131.349 57.0949 130.87C56.4958 130.436 55.9991 129.876 55.6399 129.23Z" fill="#FF9A6C"/>
<path d="M110.255 85.615C110.255 85.615 110.505 83.905 114.1 84.485C116.355 84.85 115.175 86.31 115.175 86.31C115.343 86.4556 115.474 86.6399 115.556 86.847C115.637 87.0542 115.667 87.278 115.643 87.4993C115.619 87.7207 115.541 87.9328 115.417 88.1176C115.293 88.3023 115.126 88.4542 114.93 88.56L115.165 88.735C115.165 88.735 116.96 89.635 115.41 91.235C115.567 91.52 115.632 91.8468 115.595 92.1702C115.558 92.4936 115.422 92.7975 115.205 93.04C114.435 93.815 112.5 92.785 112.5 92.785C112.5 92.785 109.765 92.74 109.61 92.015C109.562 91.795 109.59 91.5651 109.689 91.3628C109.788 91.1604 109.952 90.9974 110.155 90.9C110.785 90.7832 111.421 90.7064 112.06 90.67C112.06 90.67 109.67 90.645 109.455 90.17C109.07 89.335 109.17 88.48 112.06 88.59C112.06 88.59 109.91 88.545 109.665 88.09C109.42 87.635 109.72 86.945 110.495 86.59C110.952 86.3716 111.454 86.267 111.96 86.285C111.96 86.285 109.95 86.695 110.255 85.615Z" fill="#FFBF9D"/>
<path d="M115.065 86.32C114.419 86.3963 113.769 86.4197 113.12 86.39C112.472 86.4375 111.822 86.4375 111.175 86.39C111.798 86.175 112.456 86.08 113.115 86.11C113.772 86.0589 114.433 86.1301 115.065 86.32Z" fill="#FF9A6C"/>
<path d="M114.97 88.645C114.359 88.6942 113.745 88.6942 113.135 88.645C112.523 88.6806 111.909 88.6673 111.3 88.605C111.893 88.4111 112.518 88.3363 113.14 88.385C113.761 88.3459 114.384 88.4344 114.97 88.645Z" fill="#FF9A6C"/>
<path d="M115.455 91.3549C115.425 91.4249 114.61 91.0699 113.545 90.8999C112.48 90.7299 111.6 90.7949 111.59 90.7149C112.239 90.517 112.928 90.4912 113.59 90.6399C114.264 90.7086 114.908 90.9554 115.455 91.3549Z" fill="#FF9A6C"/>
</svg>
