<svg width="250" height="250" viewBox="0 0 250 250" fill="none" xmlns="http://www.w3.org/2000/svg">
<path d="M200.705 185.575C200.705 185.575 222.76 166.225 222.76 140.69C222.76 115.155 208.445 115.15 196.06 82.26C183.675 49.37 148.465 45.115 127.185 55.56C109.125 64.43 103.97 91.16 88.4899 96.19C73.0099 101.22 71.49 88.84 46.7 95.415C21.91 101.99 34.7 137.98 34.7 137.98L82.6999 123.275L200.705 185.575Z" fill="#DAA520"/>
<path opacity="0.7" d="M200.705 185.575C200.705 185.575 222.76 166.225 222.76 140.69C222.76 115.155 208.445 115.15 196.06 82.26C183.675 49.37 148.465 45.115 127.185 55.56C109.125 64.43 103.97 91.16 88.4899 96.19C73.0099 101.22 71.49 88.84 46.7 95.415C21.91 101.99 34.7 137.98 34.7 137.98L82.6999 123.275L200.705 185.575Z" fill="white"/>
<path d="M115.165 185.5L81.835 198.835L43.165 160.165L68.5 156.5L115.165 185.5Z" fill="#DAA520"/>
<path opacity="0.5" d="M115.165 185.5L81.835 198.835L43.165 160.165L68.5 156.5L115.165 185.5Z" fill="white"/>
<path d="M156.165 203.17C160.583 203.17 164.165 200.781 164.165 197.835C164.165 194.889 160.583 192.5 156.165 192.5C151.747 192.5 148.165 194.889 148.165 197.835C148.165 200.781 151.747 203.17 156.165 203.17Z" fill="#DAA520"/>
<path opacity="0.5" d="M156.165 203.17C160.583 203.17 164.165 200.781 164.165 197.835C164.165 194.889 160.583 192.5 156.165 192.5C151.747 192.5 148.165 194.889 148.165 197.835C148.165 200.781 151.747 203.17 156.165 203.17Z" fill="white"/>
<path d="M124.835 167.545L173.675 171.415L162.835 165.835L124.835 167.545Z" fill="#DAA520"/>
<path opacity="0.5" d="M124.835 167.545L173.675 171.415L162.835 165.835L124.835 167.545Z" fill="white"/>
<path d="M135.835 152.5L121.345 151.315L123.165 149.165H131.5L135.835 152.5Z" fill="#DAA520"/>
<path opacity="0.5" d="M135.835 152.5L121.345 151.315L123.165 149.165H131.5L135.835 152.5Z" fill="white"/>
<path d="M182.82 210.335C188.434 210.335 192.985 207.575 192.985 204.17C192.985 200.765 188.434 198.005 182.82 198.005C177.206 198.005 172.655 200.765 172.655 204.17C172.655 207.575 177.206 210.335 182.82 210.335Z" fill="#DAA520"/>
<path opacity="0.5" d="M182.82 210.335C188.434 210.335 192.985 207.575 192.985 204.17C192.985 200.765 188.434 198.005 182.82 198.005C177.206 198.005 172.655 200.765 172.655 204.17C172.655 207.575 177.206 210.335 182.82 210.335Z" fill="white"/>
<path d="M122.585 189.855L117.11 198.85L129.235 201.2L133.93 192.205L122.585 189.855Z" fill="white" stroke="#263238" stroke-linecap="round" stroke-linejoin="round"/>
<path d="M131.975 179.69L126.5 187.9L137.84 191.42L142.535 183.21L131.975 179.69Z" fill="#DAA520"/>
<mask id="mask0_865_598" style="mask-type:alpha" maskUnits="userSpaceOnUse" x="126" y="179" width="17" height="13">
<path d="M131.975 179.69L126.5 187.9L137.84 191.42L142.535 183.21L131.975 179.69Z" fill="white"/>
</mask>
<g mask="url(#mask0_865_598)">
<path opacity="0.5" d="M131.975 179.69L126.5 187.9L137.84 191.42L142.535 183.21L131.975 179.69Z" fill="white" stroke="#263238" stroke-miterlimit="10"/>
</g>
<path d="M131.975 179.69L126.5 187.9L137.84 191.42L142.535 183.21L131.975 179.69Z" stroke="#263238" stroke-linecap="round" stroke-linejoin="round"/>
<path d="M144.1 195.335L134.32 198.07L138.23 204.33L149.575 201.59L144.1 195.335Z" fill="#DAA520" stroke="#263238" stroke-linecap="round" stroke-linejoin="round"/>
<path d="M172 193.73L173 201.325C173 204.47 176.825 207.025 181.545 207.025C186.265 207.025 190.095 204.47 190.095 201.325L191.125 193.73H172Z" fill="#DAA520" stroke="#263238" stroke-linecap="round" stroke-linejoin="round"/>
<path d="M181.555 200.115C186.843 200.115 191.13 197.256 191.13 193.73C191.13 190.204 186.843 187.345 181.555 187.345C176.267 187.345 171.98 190.204 171.98 193.73C171.98 197.256 176.267 200.115 181.555 200.115Z" fill="#DAA520" stroke="#263238" stroke-linecap="round" stroke-linejoin="round"/>
<path d="M181.555 199.16C186.053 199.16 189.7 196.729 189.7 193.73C189.7 190.731 186.053 188.3 181.555 188.3C177.057 188.3 173.41 190.731 173.41 193.73C173.41 196.729 177.057 199.16 181.555 199.16Z" fill="#DAA520" stroke="#263238" stroke-linecap="round" stroke-linejoin="round"/>
<path d="M181.555 199.165C185.976 199.165 189.56 197.173 189.56 194.715C189.56 192.257 185.976 190.265 181.555 190.265C177.134 190.265 173.55 192.257 173.55 194.715C173.55 197.173 177.134 199.165 181.555 199.165Z" fill="#263238" stroke="#263238" stroke-linecap="round" stroke-linejoin="round"/>
<path d="M184.44 179.155C183.05 178.26 180.94 178.34 180.095 179.995C178.845 182.405 179.74 186.87 179.29 187.495C178.84 188.12 177.505 188.3 176.88 186.96C176.255 185.62 176.255 183.835 175.45 183.745C174.645 183.655 173.575 184.015 173.395 186.07C173.215 188.125 173.575 190.445 175.005 191.515C176.435 192.585 178.04 192.23 178.505 192.68C178.97 193.13 178.505 193.83 178.505 194.29C178.505 196.29 181.12 197.29 182.775 196.79C185.185 196.075 184.92 193.66 185.275 192.68C185.63 191.7 187.6 191.605 188.315 190.09C189.03 188.575 190.1 185.53 188.58 184.37C187.06 183.21 185.9 183.745 185.725 184.995C185.517 185.988 185.181 186.949 184.725 187.855C185.795 185.74 186.845 180.705 184.44 179.155Z" fill="#DAA520"/>
<mask id="mask1_865_598" style="mask-type:alpha" maskUnits="userSpaceOnUse" x="173" y="178" width="17" height="19">
<path d="M184.44 179.155C183.05 178.26 180.94 178.34 180.095 179.995C178.845 182.405 179.74 186.87 179.29 187.495C178.84 188.12 177.505 188.3 176.88 186.96C176.255 185.62 176.255 183.835 175.45 183.745C174.645 183.655 173.575 184.015 173.395 186.07C173.215 188.125 173.575 190.445 175.005 191.515C176.435 192.585 178.04 192.23 178.505 192.68C178.97 193.13 178.505 193.83 178.505 194.29C178.505 196.29 181.12 197.29 182.775 196.79C185.185 196.075 184.92 193.66 185.275 192.68C185.63 191.7 187.6 191.605 188.315 190.09C189.03 188.575 190.1 185.53 188.58 184.37C187.06 183.21 185.9 183.745 185.725 184.995C185.517 185.988 185.181 186.949 184.725 187.855C185.795 185.74 186.845 180.705 184.44 179.155Z" fill="white"/>
</mask>
<g mask="url(#mask1_865_598)">
<path opacity="0.2" d="M184.44 179.155C183.05 178.26 180.94 178.34 180.095 179.995C178.845 182.405 179.74 186.87 179.29 187.495C178.84 188.12 177.505 188.3 176.88 186.96C176.255 185.62 176.255 183.835 175.45 183.745C174.645 183.655 173.575 184.015 173.395 186.07C173.215 188.125 173.575 190.445 175.005 191.515C176.435 192.585 178.04 192.23 178.505 192.68C178.97 193.13 178.505 193.83 178.505 194.29C178.505 196.29 181.12 197.29 182.775 196.79C185.185 196.075 184.92 193.66 185.275 192.68C185.63 191.7 187.6 191.605 188.315 190.09C189.03 188.575 190.1 185.53 188.58 184.37C187.06 183.21 185.9 183.745 185.725 184.995C185.517 185.988 185.181 186.949 184.725 187.855C185.795 185.74 186.845 180.705 184.44 179.155Z" fill="black"/>
</g>
<path d="M184.44 179.155C183.05 178.26 180.94 178.34 180.095 179.995C178.845 182.405 179.74 186.87 179.29 187.495C178.84 188.12 177.505 188.3 176.88 186.96C176.255 185.62 176.255 183.835 175.45 183.745C174.645 183.655 173.575 184.015 173.395 186.07C173.215 188.125 173.575 190.445 175.005 191.515C176.435 192.585 178.04 192.23 178.505 192.68C178.97 193.13 178.505 193.83 178.505 194.29C178.505 196.29 181.12 197.29 182.775 196.79C185.185 196.075 184.92 193.66 185.275 192.68C185.63 191.7 187.6 191.605 188.315 190.09C189.03 188.575 190.1 185.53 188.58 184.37C187.06 183.21 185.9 183.745 185.725 184.995C185.517 185.988 185.181 186.949 184.725 187.855C185.795 185.74 186.845 180.705 184.44 179.155Z" stroke="#263238" stroke-linecap="round" stroke-linejoin="round"/>
<path d="M182.24 179.815C181.834 180.082 181.495 180.438 181.247 180.855C180.999 181.273 180.85 181.741 180.81 182.225C180.72 183.835 180.81 188.925 180.185 189.64C179.56 190.355 177.505 190.175 176.185 188.925C174.865 187.675 175.45 185 175.45 185" stroke="#263238" stroke-width="0.5" stroke-linecap="round" stroke-linejoin="round"/>
<path d="M175.845 190.5C176.308 190.86 176.844 191.116 177.415 191.25C179.025 191.605 180.185 190.805 180.455 191.605C180.725 192.405 180.185 195.27 180.185 195.27" stroke="#263238" stroke-width="0.5" stroke-linecap="round" stroke-linejoin="round"/>
<path d="M174.915 189.55C175.082 189.785 175.273 190.001 175.485 190.195" stroke="#263238" stroke-width="0.5" stroke-linecap="round" stroke-linejoin="round"/>
<path d="M182.21 193.805C182.3 192.473 182.31 191.138 182.24 189.805C182.08 187.805 183.01 184.09 183.24 182.41" stroke="#263238" stroke-width="0.5" stroke-linecap="round" stroke-linejoin="round"/>
<path d="M182.06 195.895C182.06 195.895 182.11 195.35 182.165 194.55" stroke="#263238" stroke-width="0.5" stroke-linecap="round" stroke-linejoin="round"/>
<path d="M188.245 186.945C188.29 186.51 188.315 186.245 188.315 186.245" stroke="#263238" stroke-width="0.5" stroke-linecap="round" stroke-linejoin="round"/>
<path d="M184.025 194.285C184.025 194.285 184.385 191.34 185.1 190.785C185.815 190.23 187.865 189.89 188.045 188.55C188.075 188.34 188.1 188.14 188.125 187.955" stroke="#263238" stroke-width="0.5" stroke-linecap="round" stroke-linejoin="round"/>
<path d="M187.065 185.085C186.878 185.211 186.728 185.385 186.633 185.59C186.538 185.794 186.501 186.021 186.525 186.245C186.562 186.78 186.448 187.315 186.196 187.789C185.944 188.262 185.564 188.656 185.1 188.925" stroke="#263238" stroke-width="0.5" stroke-linecap="round" stroke-linejoin="round"/>
<path d="M183.34 181.39C183.367 180.89 183.357 180.388 183.31 179.89" stroke="#263238" stroke-width="0.5" stroke-linecap="round" stroke-linejoin="round"/>
<path d="M149.29 179.43L150.615 193.38V194.855C150.615 196.855 153.425 198.44 156.895 198.44C160.365 198.44 163.175 196.835 163.175 194.855V193.38L164.38 179.285L149.29 179.43Z" fill="white" stroke="#263238" stroke-linecap="round" stroke-linejoin="round"/>
<path d="M163.235 192.625L163.93 184.5C162.995 185.955 160.205 187 156.905 187C153.43 187 150.525 185.83 149.75 184.255L150.54 192.575C151.82 193.64 154.185 194.36 156.905 194.36C159.625 194.36 161.955 193.675 163.235 192.625Z" fill="#DAA520" stroke="#263238" stroke-linecap="round" stroke-linejoin="round"/>
<path d="M149.54 182.06V181.965L149.475 181.405L149.54 182.06Z" fill="white" stroke="#263238" stroke-linecap="round" stroke-linejoin="round"/>
<path d="M164.62 177.36C163.29 175.68 160.335 174.505 156.895 174.505C153.455 174.505 150.5 175.68 149.165 177.36H148.41V179.36C148.41 182.04 152.21 184.21 156.91 184.21C161.61 184.21 165.41 182.04 165.41 179.36V177.36H164.62Z" fill="#DAA520" stroke="#263238" stroke-linecap="round" stroke-linejoin="round"/>
<path opacity="0.2" d="M164.62 177.36C163.29 175.68 160.335 174.505 156.895 174.505C153.455 174.505 150.5 175.68 149.165 177.36H148.41V179.36C148.41 182.04 152.21 184.21 156.91 184.21C161.61 184.21 165.41 182.04 165.41 179.36V177.36H164.62Z" fill="black"/>
<path d="M156.895 182.21C161.581 182.21 165.38 180.039 165.38 177.36C165.38 174.681 161.581 172.51 156.895 172.51C152.209 172.51 148.41 174.681 148.41 177.36C148.41 180.039 152.209 182.21 156.895 182.21Z" fill="white" stroke="#263238" stroke-linecap="round" stroke-linejoin="round"/>
<path d="M163.645 174.655C162.48 173.185 159.9 172.155 156.895 172.155C153.89 172.155 151.31 173.18 150.145 174.655H149.5V176.395C149.5 178.735 152.815 180.63 156.91 180.63C161.005 180.63 164.32 178.735 164.32 176.395V174.655H163.645Z" fill="#DAA520" stroke="#263238" stroke-linecap="round" stroke-linejoin="round"/>
<path d="M156.895 178.89C160.987 178.89 164.305 176.994 164.305 174.655C164.305 172.316 160.987 170.42 156.895 170.42C152.802 170.42 149.485 172.316 149.485 174.655C149.485 176.994 152.802 178.89 156.895 178.89Z" fill="white" stroke="#263238" stroke-linecap="round" stroke-linejoin="round"/>
<path d="M82.105 133.53C82.105 133.53 82.685 133.145 86.365 134.69C90.045 136.235 91.49 135.9 95.07 135.27C99.37 134.52 102.94 133.77 103.37 135.51C104.115 138.51 101.105 138.475 95.69 139.055C90.275 139.635 87.135 137.98 85.395 137.205C84.5941 136.876 83.8186 136.489 83.075 136.045L82.105 133.53Z" fill="white" stroke="#263238" stroke-linecap="round" stroke-linejoin="round"/>
<path d="M73.7851 135.08C73.7851 135.08 78.6251 140.69 80.7501 139.14C82.8751 137.59 82.6851 132.565 80.7501 131.015C78.8151 129.465 73.4001 132.37 73.7851 135.08Z" fill="white" stroke="#263238" stroke-linecap="round" stroke-linejoin="round"/>
<path d="M88.5001 119.6C88.5001 119.6 88.6951 124.825 87.3401 128.305C85.9851 131.785 83.4701 134.11 83.0851 136.045C82.7001 137.98 82.8901 140.69 80.9551 141.465C79.0201 142.24 79.0201 140.885 79.2151 139.335C79.4101 137.785 79.7951 131.985 79.7951 131.985L73.4001 135.85C73.4001 135.85 75.1401 140.69 71.4651 141.27C67.7901 141.85 63.3401 136.24 62.7601 132C62.1801 127.76 64.5001 118.26 68.5651 115.745C72.6301 113.23 77.8501 113.62 80.5651 113.62C83.2801 113.62 87.3301 115.54 88.5001 119.6Z" fill="white" stroke="#263238" stroke-linecap="round" stroke-linejoin="round"/>
<path d="M73.0751 114.23C73.0751 114.23 72.0752 114.73 70.3302 117.475C68.5852 120.22 72.0751 122.585 73.9501 121.34C75.8251 120.095 74.1952 117.475 75.5702 116.225C76.3612 115.554 76.8919 114.627 77.0702 113.605L73.0751 114.23Z" fill="#263238"/>
<path d="M67.4651 118.095C67.018 118.414 66.6426 118.823 66.3628 119.296C66.0829 119.769 65.9049 120.295 65.8401 120.84C65.7151 122.585 68.8401 119.34 69.2101 117.84C69.5801 116.34 67.4651 118.095 67.4651 118.095Z" fill="#263238"/>
<path d="M78.6251 114.185C78.1813 114.991 77.965 115.903 77.9994 116.822C78.0337 117.742 78.3174 118.634 78.8201 119.405C80.5601 122.115 84.4301 123.275 85.9751 121.34C87.5201 119.405 88.1051 118.44 87.5251 117.475C86.9451 116.51 81.3351 112.635 78.6251 114.185Z" fill="#DAA520" stroke="#263238" stroke-linecap="round" stroke-linejoin="round"/>
<path d="M92.9402 104.705C92.2058 104.785 91.4628 104.705 90.7621 104.471C90.0614 104.237 89.4194 103.855 88.8802 103.35C86.9452 101.61 85.2002 97.7401 84.4302 97.9301C83.6602 98.1201 80.9302 103.735 80.9302 103.735C80.9302 103.735 76.2852 104.125 75.9002 105.475C75.5152 106.825 77.6402 113.215 79.4002 115.925C80.2209 117.132 81.3135 118.13 82.5901 118.838C83.8667 119.545 85.2916 119.944 86.7502 120C89.0702 120 96.0352 120.58 97.0052 118.255C97.9752 115.93 97.1952 108.97 97.1952 108.97C97.1952 108.97 100.295 105.875 98.9402 105.295C97.5852 104.715 92.9402 104.705 92.9402 104.705Z" fill="white" stroke="#263238" stroke-linecap="round" stroke-linejoin="round"/>
<path d="M92 114.385C91.765 114.08 91.54 113.77 91.32 113.45C90.955 112.91 90.09 112.085 88.425 112.61C86.055 113.355 84.425 115.61 87.055 117.475C89.53 119.25 94.5 117.65 92 114.385Z" fill="#263238"/>
<path d="M80.9451 103.735C80.9451 103.735 83.6551 105.285 85.2001 104.705C86.7451 104.125 85.7801 97.5451 84.4301 97.9301C83.0801 98.3151 80.7501 101.22 80.9451 103.735Z" fill="white" stroke="#263238" stroke-linecap="round" stroke-linejoin="round"/>
<path d="M98.9401 105.285C98.9401 105.285 96.4401 105.09 94.8751 106.83C93.3101 108.57 94.2951 110.33 96.4251 110.7C98.5551 111.07 99.7101 105.285 98.9401 105.285Z" fill="white" stroke="#263238" stroke-linecap="round" stroke-linejoin="round"/>
<path d="M83.8502 116.12C83.8502 116.12 81.3502 114.185 81.9152 115.73C82.4802 117.275 83.4602 117.475 84.4152 117.085C85.3702 116.695 83.8502 116.12 83.8502 116.12Z" fill="#DAA520" stroke="#263238" stroke-linecap="round" stroke-linejoin="round"/>
<path d="M82.47 111.27C82.325 111.77 81.915 112.12 81.555 112.02C81.195 111.92 81.02 111.42 81.165 110.905C81.31 110.39 81.72 110.055 82.08 110.155C82.44 110.255 82.615 110.76 82.47 111.27Z" fill="#263238"/>
<path d="M88.4352 115.835C87.9702 116.105 87.4352 116.065 87.2552 115.74C87.0752 115.415 87.2852 114.94 87.7552 114.67C87.9269 114.533 88.144 114.467 88.3628 114.483C88.5817 114.5 88.7861 114.599 88.9352 114.76C89.1152 115.085 88.8952 115.565 88.4352 115.835Z" fill="white"/>
<path d="M71.0801 128.115C71.0801 128.115 70.5001 132.37 71.2701 134.115C72.0401 135.86 72.8201 142.435 74.3701 142.615C75.9201 142.795 75.3351 139.115 75.3351 138.55C75.3351 137.985 75.5301 131.78 75.5301 131.78C75.5301 131.78 76.8851 128.875 77.6551 127.33" fill="white"/>
<path d="M71.0801 128.115C71.0801 128.115 70.5001 132.37 71.2701 134.115C72.0401 135.86 72.8201 142.435 74.3701 142.615C75.9201 142.795 75.3351 139.115 75.3351 138.55C75.3351 137.985 75.5301 131.78 75.5301 131.78C75.5301 131.78 76.8851 128.875 77.6551 127.33" stroke="#263238" stroke-linecap="round" stroke-linejoin="round"/>
<path d="M64.6951 127.92C64.6951 127.92 69.9201 126.37 70.5001 132.175" stroke="#263238" stroke-linecap="round" stroke-linejoin="round"/>
<path d="M79.7852 132C79.7852 132 84.2352 129.675 84.4302 124.645" stroke="#263238" stroke-linecap="round" stroke-linejoin="round"/>
<path d="M26 139.915L29.295 139.17" stroke="#263238" stroke-linecap="round" stroke-linejoin="round"/>
<path d="M53.5 159.36L80.07 151.825C80.9146 151.735 81.7641 151.94 82.475 152.405L125.71 180.03C125.894 180.149 126.037 180.322 126.12 180.525C126.203 180.728 126.221 180.952 126.173 181.166C126.124 181.379 126.011 181.573 125.849 181.721C125.686 181.868 125.483 181.962 125.265 181.99L88.905 193.315L53.5 159.36Z" fill="#DAA520" stroke="#263238" stroke-linecap="round" stroke-linejoin="round"/>
<path d="M69.0349 160.95L72.7999 163.545L77.1499 162.315L73.3899 159.725L69.0349 160.95Z" fill="#263238"/>
<path d="M71.3799 168.205L67.6199 165.61L63.2649 166.84L67.0299 169.435L71.3799 168.205Z" fill="#263238"/>
<path d="M78.4951 162.54L82.2551 165.13L86.6051 163.9L82.8451 161.31L78.4951 162.54Z" fill="#263238"/>
<path d="M82.8799 165.56L86.6399 168.15L90.9899 166.92L87.2299 164.33L82.8799 165.56Z" fill="#263238"/>
<path d="M73.4199 163.97L77.1799 166.565L81.5299 165.335L77.7699 162.745L73.4199 163.97Z" fill="#263238"/>
<path d="M63.96 162.385L67.72 164.98L72.075 163.75L68.31 161.155L63.96 162.385Z" fill="#263238"/>
<path d="M93.985 178.85L90.22 176.255L85.875 177.485L89.635 180.08L93.985 178.85Z" fill="#263238"/>
<path d="M88.9049 180.285L85.1449 177.69L80.7949 178.92L84.5599 181.51L88.9049 180.285Z" fill="#263238"/>
<path d="M75.7599 171.225L71.9999 168.63L67.6499 169.86L71.4099 172.45L75.7599 171.225Z" fill="#263238"/>
<path d="M98.3649 181.87L94.6049 179.28L90.2549 180.505L94.0149 183.1L98.3649 181.87Z" fill="#263238"/>
<path d="M80.145 174.245L76.38 171.65L72.03 172.88L75.795 175.47L80.145 174.245Z" fill="#263238"/>
<path d="M84.525 177.265L80.765 174.67L76.415 175.9L80.175 178.495L84.525 177.265Z" fill="#263238"/>
<path d="M87.26 168.58L91.02 171.17L95.37 169.94L91.61 167.35L87.26 168.58Z" fill="#263238"/>
<path d="M68.345 165.405L72.105 168L76.455 166.77L72.695 164.18L68.345 165.405Z" fill="#263238"/>
<path d="M103.44 180.435L99.6801 177.845L95.3301 179.075L99.0901 181.665L103.44 180.435Z" fill="#263238"/>
<path d="M90.2951 171.375L86.5351 168.785L82.1851 170.01L85.9451 172.605L90.2951 171.375Z" fill="#263238"/>
<path d="M80.8351 169.79L77.0751 167.195L72.7251 168.425L76.4851 171.02L80.8351 169.79Z" fill="#263238"/>
<path d="M62.6149 162.165L60.4149 160.645L57.4399 161.48L59.1799 163.135L62.6149 162.165Z" fill="#263238"/>
<path d="M66.9949 165.185L63.2349 162.59L59.6699 163.6L62.6149 166.39L62.6449 166.41L66.9949 165.185Z" fill="#263238"/>
<path d="M77.8 166.995L81.565 169.585L85.915 168.355L82.15 165.765L77.8 166.995Z" fill="#263238"/>
<path d="M85.2201 172.81L81.4601 170.22L77.1101 171.445L80.8701 174.04L85.2201 172.81Z" fill="#263238"/>
<path d="M104.135 175.98L100.375 173.39L96.0249 174.62L99.7849 177.21L104.135 175.98Z" fill="#263238"/>
<path d="M91.6399 171.6L95.4049 174.19L99.7549 172.96L95.9949 170.37L91.6399 171.6Z" fill="#263238"/>
<path d="M99.06 177.415L95.3 174.825L90.95 176.055L94.71 178.645L99.06 177.415Z" fill="#263238"/>
<path d="M94.6749 174.395L90.9149 171.805L86.5649 173.03L90.3299 175.625L94.6749 174.395Z" fill="#263238"/>
<path d="M89.6 175.83L85.84 173.24L81.49 174.465L85.25 177.06L89.6 175.83Z" fill="#263238"/>
<path d="M70.6851 172.655L66.9251 170.065L66.5901 170.16L69.5551 172.975L70.6851 172.655Z" fill="#263238"/>
<path d="M104.065 180.865L99.7151 182.095L104.225 185.2L108.465 183.895L104.065 180.865Z" fill="#263238"/>
<path d="M98.985 182.3L94.635 183.525L99.28 186.725L103.515 185.42L98.985 182.3Z" fill="#263238"/>
<path d="M79.4499 178.695L75.6899 176.105L73.5049 176.72L76.4749 179.54L79.4499 178.695Z" fill="#263238"/>
<path d="M108.52 179L104.755 176.41L100.405 177.64L104.17 180.23L108.52 179Z" fill="#263238"/>
<path d="M83.8301 181.72L80.0701 179.125L76.9651 180.005L79.9301 182.82L83.8301 181.72Z" fill="#263238"/>
<path d="M88.2149 184.74L84.4549 182.145L80.4199 183.285L83.3899 186.1L88.2149 184.74Z" fill="#263238"/>
<path d="M93.2899 183.305L89.5299 180.71L85.1799 181.94L88.9399 184.535L93.2899 183.305Z" fill="#263238"/>
<path d="M117.86 179.235L115.36 177.67L109.86 179.225L114.11 182.155L117.42 181.155C117.638 181.136 117.845 181.048 118.01 180.904C118.175 180.761 118.29 180.568 118.339 180.355C118.388 180.142 118.368 179.918 118.282 179.717C118.196 179.516 118.048 179.347 117.86 179.235Z" fill="#263238"/>
<path d="M88.8349 185.165L83.8799 186.565L87.7799 190.265L93.6249 188.465L88.8349 185.165Z" fill="#263238"/>
<path d="M110.72 174.725L105.485 176.205L109.245 178.795L114.72 177.25L110.72 174.725Z" fill="#263238"/>
<path d="M109.14 179.43L104.79 180.66L109.17 183.68L113.41 182.375L109.14 179.43Z" fill="#263238"/>
<path d="M78.5699 157.655L82.1249 156.65L79.8299 155.2L76.3999 156.16L78.5699 157.655Z" fill="#263238"/>
<path d="M98.5701 186.945L93.9101 183.73L89.5601 184.96L94.3301 188.25L98.5701 186.945Z" fill="#263238"/>
<path d="M79.1899 158.085L82.9499 160.675L86.7849 159.595L82.7849 157.07L79.1899 158.085Z" fill="#263238"/>
<path d="M87.9551 164.125L91.7151 166.715L96.0951 165.48L92.1001 162.955L87.9551 164.125Z" fill="#263238"/>
<path d="M83.5701 161.105L87.3351 163.695L91.4401 162.535L87.4401 160.01L83.5701 161.105Z" fill="#263238"/>
<path d="M92.335 167.145L96.095 169.735L100.75 168.425L96.755 165.895L92.335 167.145Z" fill="#263238"/>
<path d="M96.72 170.165L100.48 172.755L105.405 171.365L101.41 168.84L96.72 170.165Z" fill="#263238"/>
<path d="M106.065 171.78L101.1 173.185L104.86 175.775L110.06 174.31L106.065 171.78Z" fill="#263238"/>
<path d="M74.115 159.52L77.875 162.11L82.225 160.88L78.465 158.29L74.115 159.52Z" fill="#263238"/>
<path d="M65.3301 168.97L66.1001 169.695L66.3001 169.635L65.3301 168.97Z" fill="#263238"/>
<path d="M63.3399 161.96L67.6899 160.73L65.4999 159.22L61.1399 160.44L63.3399 161.96Z" fill="#263238"/>
<path d="M68.4151 160.525L72.7651 159.295L70.5851 157.79L66.2251 159.015L68.4151 160.525Z" fill="#263238"/>
<path d="M71.3149 157.59L73.4949 159.09L77.8449 157.86L75.6699 156.365L71.3149 157.59Z" fill="#263238"/>
<path d="M75.0649 175.68L71.3049 173.085L70.0449 173.44L73.0149 176.255L75.0649 175.68Z" fill="#263238"/>
<path d="M88.8799 193.315L77.3799 146.76C77.118 145.702 76.5533 144.743 75.7549 144L44.7549 115.095C44.6232 114.973 44.4557 114.896 44.277 114.876C44.0983 114.856 43.9179 114.894 43.7623 114.984C43.6067 115.074 43.4841 115.211 43.4126 115.376C43.3411 115.541 43.3244 115.725 43.3649 115.9L53.4999 159.36L88.8799 193.315Z" fill="#DAA520" stroke="#263238" stroke-linecap="round" stroke-linejoin="round"/>
<path d="M71.5 142.095L75.045 145.195C75.045 145.195 76.15 145.415 77.255 150.95" stroke="#263238" stroke-width="0.5" stroke-linecap="round" stroke-linejoin="round"/>
<path d="M77.9199 153.825L84.4549 182.145" stroke="#263238" stroke-width="0.5" stroke-linecap="round" stroke-linejoin="round"/>
<path d="M58.785 140.83C60.32 144.56 60.18 148.155 58.47 148.86C56.76 149.565 54.125 147.11 52.59 143.36C51.055 139.61 51.195 136.035 52.905 135.335C54.615 134.635 57.25 137.1 58.785 140.83Z" fill="#DAA520"/>
<path opacity="0.6" d="M58.785 140.83C60.32 144.56 60.18 148.155 58.47 148.86C56.76 149.565 54.125 147.11 52.59 143.36C51.055 139.61 51.195 136.035 52.905 135.335C54.615 134.635 57.25 137.1 58.785 140.83Z" fill="white"/>
<path d="M57.6648 146.908C58.8802 146.408 58.9799 143.851 57.8875 141.198C56.7951 138.545 54.9242 136.8 53.7088 137.301C52.4934 137.801 52.3936 140.358 53.486 143.011C54.5784 145.664 56.4493 147.409 57.6648 146.908Z" stroke="#263238" stroke-miterlimit="10"/>
<path d="M61.1549 156.125C61.9549 158.06 61.6249 160.03 60.4249 160.525C59.2249 161.02 57.6049 159.85 56.8049 157.92C56.0049 155.99 56.3399 154.015 57.5399 153.52C58.7399 153.025 60.3599 154.195 61.1549 156.125Z" fill="#263238"/>
<path d="M59.4999 159.4C58.7449 159.4 57.9249 158.715 57.4999 157.645C57.2606 157.095 57.1776 156.489 57.2599 155.895C57.2819 155.647 57.3681 155.409 57.5102 155.205C57.6523 155.001 57.8452 154.837 58.0699 154.73C58.9149 154.38 59.9949 155.115 60.5249 156.4C61.0499 157.685 60.7999 158.965 59.9549 159.315C59.8101 159.372 59.6556 159.401 59.4999 159.4ZM58.4999 155.145C58.414 155.144 58.3288 155.161 58.2499 155.195C58.1062 155.272 57.9847 155.385 57.8972 155.522C57.8096 155.66 57.7589 155.817 57.7499 155.98C57.6784 156.49 57.7511 157.01 57.9599 157.48C58.3649 158.48 59.1899 159.11 59.7599 158.875C60.3299 158.64 60.4649 157.605 60.0549 156.615C59.6799 155.74 58.9999 155.145 58.4999 155.145Z" fill="#DAA520"/>
<g opacity="0.5">
<path d="M59.4999 159.4C58.7449 159.4 57.9249 158.715 57.4999 157.645C57.2606 157.095 57.1776 156.489 57.2599 155.895C57.2819 155.647 57.3681 155.409 57.5102 155.205C57.6523 155.001 57.8452 154.837 58.0699 154.73C58.9149 154.38 59.9949 155.115 60.5249 156.4C61.0499 157.685 60.7999 158.965 59.9549 159.315C59.8101 159.372 59.6556 159.401 59.4999 159.4ZM58.4999 155.145C58.414 155.144 58.3288 155.161 58.2499 155.195C58.1062 155.272 57.9847 155.385 57.8972 155.522C57.8096 155.66 57.7589 155.817 57.7499 155.98C57.6784 156.49 57.7511 157.01 57.9599 157.48C58.3649 158.48 59.1899 159.11 59.7599 158.875C60.3299 158.64 60.4649 157.605 60.0549 156.615C59.6799 155.74 58.9999 155.145 58.4999 155.145Z" fill="white"/>
</g>
<path d="M70.07 156.745L67.225 161.245C67.1517 161.355 67.1125 161.483 67.1125 161.615C67.1125 161.747 67.1517 161.876 67.225 161.985L73.315 170.865C73.3683 170.944 73.4376 171.011 73.5184 171.061C73.5992 171.111 73.6896 171.144 73.7839 171.157C73.8781 171.171 73.9741 171.164 74.0656 171.138C74.1571 171.111 74.242 171.066 74.315 171.005L77.47 168.43C77.5957 168.329 77.6806 168.185 77.7091 168.027C77.7376 167.868 77.7077 167.704 77.625 167.565L71.22 156.77C71.1627 156.669 71.0803 156.585 70.9807 156.526C70.8812 156.466 70.768 156.434 70.6521 156.431C70.5362 156.429 70.4217 156.456 70.3196 156.511C70.2176 156.566 70.1316 156.647 70.07 156.745Z" fill="#263238"/>
<path d="M65.12 162.71C65.12 162.71 73 161.4 78.415 172.5L79.76 170.845C79.76 170.845 74.545 162.16 70.295 161.385C66.045 160.61 64.5 160.605 64.5 160.605L65.12 162.71Z" fill="#DAA520"/>
<path opacity="0.5" d="M65.12 162.71C65.12 162.71 73 161.4 78.415 172.5L79.76 170.845C79.76 170.845 74.545 162.16 70.295 161.385C66.045 160.61 64.5 160.605 64.5 160.605L65.12 162.71Z" fill="white"/>
<path d="M31.135 138.755L43.995 135.85" stroke="#263238" stroke-linecap="round" stroke-linejoin="round"/>
<path d="M112.785 166.755C111.243 166.998 109.689 167.154 108.13 167.22C105.715 167.315 104.69 167.315 105.06 167.875C105.43 168.435 108.32 168.99 109.34 169.175C110.36 169.36 112.785 166.755 112.785 166.755Z" fill="white" stroke="#263238" stroke-miterlimit="10"/>
<path d="M203.465 186.98L199.16 184.73" stroke="#263238" stroke-linecap="round" stroke-linejoin="round"/>
<path d="M117.47 134.43C117.47 134.43 118.375 132.845 118.755 134.81L117.47 134.43Z" fill="#263238"/>
<path d="M196.495 183.335L91.5349 128.5" stroke="#263238" stroke-linecap="round" stroke-linejoin="round"/>
<path d="M94.2949 149.975L116.35 164.195L134.49 156.795L110.055 144.375L94.2949 149.975Z" fill="#263238" stroke="#263238" stroke-linecap="round" stroke-linejoin="round"/>
<path d="M108.47 147.01L99.6799 150.115" stroke="white" stroke-width="0.5" stroke-linecap="round" stroke-linejoin="round"/>
<path d="M101.06 151.15L116.92 161.15L129.845 156.15" stroke="white" stroke-width="0.5" stroke-linecap="round" stroke-linejoin="round"/>
<path d="M185.17 82.78C185.17 82.78 197.8 84.78 201.865 91.55C205.93 98.32 203.025 108.96 201.67 112.635C200.445 115.97 204.065 118.755 206.29 120.565C211.29 124.625 213.865 130.355 211.265 136.59C209.645 140.47 202.44 142.21 203.415 146.88C204.39 151.55 208.635 158.1 203.22 162.94C197.505 168.04 188.93 165.41 183.92 160.645C178.285 155.285 176.345 145.96 179.23 138.755C182.73 130.05 184.645 124.44 181.355 120.755C178.065 117.07 173.81 114.755 173.81 109.535C173.81 104.315 178.455 102.765 180.39 97.535C182.325 92.305 179.615 86.895 179.615 86.895L185.17 82.78Z" fill="#263238" stroke="#263238" stroke-linecap="round" stroke-linejoin="round"/>
<path d="M197 91.8101C199.44 93.6551 201.66 96.7601 200.89 101.81C199.33 112.06 191.755 112.73 196.655 119.19C201.555 125.65 206.015 122.75 205.12 130.77C204.225 138.79 201.335 141.685 201.335 141.685" stroke="white" stroke-miterlimit="10"/>
<path d="M191.775 89.345C192.752 89.5747 193.701 89.91 194.605 90.345" stroke="white" stroke-miterlimit="10"/>
<path d="M189.325 92.2451C189.325 92.2451 195.785 94.0251 197.79 99.3701C199.795 104.715 191.79 109.175 191.33 112.515" stroke="white" stroke-miterlimit="10"/>
<path d="M189.04 179.44C188.95 176.375 188.91 172.285 189.095 167.97C189.485 159.07 200.125 147.265 200.51 145.14C200.895 143.015 199.93 142.64 199.93 142.64L178.84 133.545C169.035 139.985 166.65 158.715 166.065 167.455L189.04 179.44Z" fill="#DAA520" stroke="#263238" stroke-linecap="round" stroke-linejoin="round"/>
<path d="M197.64 143.205C197.64 143.205 199.41 144.31 197.64 146.08C195.87 147.85 191 155.375 189 159.8" stroke="#263238" stroke-width="0.5" stroke-linecap="round" stroke-linejoin="round"/>
<path d="M188.125 162C188.125 162 186.575 165.54 186.8 169.08C187.025 172.62 187.02 175.94 187.02 175.94" stroke="#263238" stroke-width="0.5" stroke-linecap="round" stroke-linejoin="round"/>
<path d="M146.755 138.4C147.685 140.82 148.805 146.025 148.06 149C147.675 150.545 146.385 153.79 145.24 156.555L173.675 171.415C173.645 165.495 173.72 156.15 174.475 154.415C175.59 151.81 184.52 127.26 183.975 121.68C183.43 116.1 172.63 108.1 172.63 108.1L174.285 94.5L164.43 100.455C164.43 100.455 163.31 105.845 162.195 107.15C161.08 108.455 151.965 110.31 149.36 113.65C146.755 116.99 147.685 127.23 147.685 127.785C147.685 128.34 145.825 136 146.755 138.4Z" fill="white"/>
<mask id="mask2_865_598" style="mask-type:alpha" maskUnits="userSpaceOnUse" x="145" y="94" width="39" height="78">
<path d="M146.755 138.4C147.685 140.82 148.805 146.025 148.06 149C147.675 150.545 146.385 153.79 145.24 156.555L173.675 171.415C173.645 165.495 173.72 156.15 174.475 154.415C175.59 151.81 184.52 127.26 183.975 121.68C183.43 116.1 172.63 108.1 172.63 108.1L174.285 94.5L164.43 100.455C164.43 100.455 163.31 105.845 162.195 107.15C161.08 108.455 151.965 110.31 149.36 113.65C146.755 116.99 147.685 127.23 147.685 127.785C147.685 128.34 145.825 136 146.755 138.4Z" fill="white"/>
</mask>
<g mask="url(#mask2_865_598)">
<g style="mix-blend-mode:multiply" opacity="0.5">
<path d="M183.96 121.66C183.4 116.08 172.615 108.08 172.615 108.08L174.285 94.5L164.43 100.455C164.43 100.455 164.105 102.01 163.635 103.655C164.27 103.6 164.98 103.51 165.775 103.37C169.535 102.705 171.53 101.37 171.53 101.37L169.53 109.78C169.53 109.78 179.71 115.78 182.365 123.06C182.725 124.06 183.11 124.995 183.505 125.925C183.842 124.529 183.995 123.095 183.96 121.66Z" fill="#DAA520"/>
</g>
</g>
<path d="M146.755 138.4C147.685 140.82 148.805 146.025 148.06 149C147.675 150.545 146.385 153.79 145.24 156.555L173.675 171.415C173.645 165.495 173.72 156.15 174.475 154.415C175.59 151.81 184.52 127.26 183.975 121.68C183.43 116.1 172.63 108.1 172.63 108.1L174.285 94.5L164.43 100.455C164.43 100.455 163.31 105.845 162.195 107.15C161.08 108.455 151.965 110.31 149.36 113.65C146.755 116.99 147.685 127.23 147.685 127.785C147.685 128.34 145.825 136 146.755 138.4Z" stroke="#263238" stroke-linecap="round" stroke-linejoin="round"/>
<path d="M146.755 138.4C147.685 140.82 148.805 146.025 148.06 149C147.675 150.545 146.385 153.79 145.24 156.555L173.675 171.415C173.645 165.495 173.72 156.15 174.475 154.415C175.59 151.81 184.52 127.26 183.975 121.68C183.63 118.205 179.32 113.8 176.115 110.965C172.96 114.31 166.115 120.55 161.115 117.77C156.615 115.27 156.9 111.47 157.565 109.21C154.525 110.33 150.89 111.76 149.395 113.68C146.79 117.03 147.72 127.26 147.72 127.815C147.72 128.37 145.825 136 146.755 138.4Z" fill="#263238" stroke="#263238" stroke-linecap="round" stroke-linejoin="round"/>
<path d="M163.365 131.79L157.175 128.885C157.175 128.885 155.43 125.985 154.465 125.985C153.5 125.985 152.915 130.05 152.915 130.05C152.915 130.05 149.63 133.145 150.79 136.24C151.95 139.335 156.205 143.98 161.43 142.24C166.655 140.5 165.105 135.085 165.105 135.085C165.105 135.085 167.235 131.41 167.235 130.635C167.235 129.86 163.365 131.79 163.365 131.79Z" fill="white" stroke="#263238" stroke-linecap="round" stroke-linejoin="round"/>
<path d="M150.105 71.805C150.105 71.805 151.41 78.505 151.22 83.155C151.03 87.805 149.175 89.655 149.72 91.71C150.265 93.765 156.975 101.385 161.065 102.125C165.155 102.865 174.83 96.545 177.62 93.755C180.41 90.965 180.78 86.875 180.41 85.2C180.04 83.525 178.55 70.135 172.97 64.74C167.39 59.345 152.71 59.905 150.105 71.805Z" fill="white"/>
<mask id="mask3_865_598" style="mask-type:alpha" maskUnits="userSpaceOnUse" x="149" y="61" width="32" height="42">
<path d="M150.105 71.805C150.105 71.805 151.41 78.505 151.22 83.155C151.03 87.805 149.175 89.655 149.72 91.71C150.265 93.765 156.975 101.385 161.065 102.125C165.155 102.865 174.83 96.545 177.62 93.755C180.41 90.965 180.78 86.875 180.41 85.2C180.04 83.525 178.55 70.135 172.97 64.74C167.39 59.345 152.71 59.905 150.105 71.805Z" fill="white"/>
</mask>
<g mask="url(#mask3_865_598)">
<g style="mix-blend-mode:multiply" opacity="0.5">
<path d="M173 64.7401C170.915 62.7401 167.555 61.5401 164.03 61.4651L163.8 68.4051C163.8 68.4051 162.69 75.2651 166.675 80.7951C170.66 86.3251 174.2 87.8801 174.64 90.0901C175.08 92.3001 173.08 94.5001 168 98.2801C166.013 99.7836 163.885 101.09 161.645 102.18C166 102.335 174.975 96.4301 177.645 93.7551C180.435 90.9651 180.805 86.8751 180.435 85.2001C180.065 83.5251 178.565 70.1351 173 64.7401Z" fill="#DAA520"/>
</g>
</g>
<path d="M150.105 71.805C150.105 71.805 151.41 78.505 151.22 83.155C151.03 87.805 149.175 89.655 149.72 91.71C150.265 93.765 156.975 101.385 161.065 102.125C165.155 102.865 174.83 96.545 177.62 93.755C180.41 90.965 180.78 86.875 180.41 85.2C180.04 83.525 178.55 70.135 172.97 64.74C167.39 59.345 152.71 59.905 150.105 71.805Z" stroke="#263238" stroke-linecap="round" stroke-linejoin="round"/>
<path d="M157.175 85.5701C157.175 85.5701 156.615 89.1051 155.675 90.2201C156.405 90.8567 157.316 91.2484 158.28 91.3401" stroke="#263238" stroke-linecap="round" stroke-linejoin="round"/>
<path d="M157.545 94.5001C158.757 95.0373 160.077 95.2835 161.401 95.2193C162.725 95.155 164.016 94.7821 165.17 94.1301" stroke="#263238" stroke-linecap="round" stroke-linejoin="round"/>
<path d="M164.24 83.71C164.24 84.33 163.95 84.83 163.59 84.83C163.23 84.83 162.94 84.33 162.94 83.71C162.94 83.09 163.23 82.595 163.59 82.595C163.95 82.595 164.24 83.095 164.24 83.71Z" fill="#263238"/>
<path d="M155.035 82.2251C155.035 82.8401 154.745 83.3401 154.385 83.3401C154.025 83.3401 153.735 82.8401 153.735 82.2251C153.735 81.6101 154.025 81.1101 154.385 81.1101C154.745 81.1101 155.035 81.6101 155.035 82.2251Z" fill="#263238"/>
<path d="M152.525 77.39C153.046 77.0644 153.628 76.847 154.236 76.7508C154.843 76.6546 155.463 76.6815 156.06 76.83" stroke="#263238" stroke-linecap="round" stroke-linejoin="round"/>
<path d="M161.265 77.575C161.265 77.575 162.38 77.015 164.8 78.505" stroke="#263238" stroke-linecap="round" stroke-linejoin="round"/>
<path d="M162.38 66.785C162.38 66.785 157.175 71.065 154.57 73.665C151.965 76.265 150.85 78.13 146.945 76.46C143.04 74.79 140.245 69.015 145.445 62.135C150.645 55.255 160.7 53.205 170.555 55.995C180.41 58.785 184.51 65.11 185.25 71.995C185.99 78.88 184.5 86.5 181 88.55C177.5 90.6 169.65 82.225 166.86 77.015C165.112 73.7225 163.614 70.3028 162.38 66.785Z" fill="#263238" stroke="#263238" stroke-linecap="round" stroke-linejoin="round"/>
<path d="M162.38 66.7852C162.38 66.7852 148.335 68.8552 147.67 71.9702C147.005 75.0852 151.235 74.2001 151.235 74.2001" stroke="white" stroke-miterlimit="10"/>
<path d="M145.86 68.8401C144.91 70.8701 145.665 72.1951 145.665 72.1951" stroke="white" stroke-miterlimit="10"/>
<path d="M176.405 60.1649C176.405 60.1649 162.815 57.9399 162.815 63.9499C162.815 63.9499 154.575 61.0549 149.23 65.0649C148.428 65.6497 147.692 66.3204 147.035 67.0649" stroke="white" stroke-miterlimit="10"/>
<path d="M163.5 65.29C163.5 65.29 166.965 76.47 174.195 79.325" stroke="white" stroke-miterlimit="10"/>
<path d="M170.71 68.2949C173.495 70.5949 177.48 72.8649 182.21 72.6399" stroke="white" stroke-miterlimit="10"/>
<path d="M166.38 63.73C167.031 64.6256 167.746 65.4728 168.52 66.265" stroke="white" stroke-miterlimit="10"/>
<path d="M148.805 78.32L170.565 82.04C170.565 82.04 170.565 85.35 169.635 87.04C168.705 88.73 167.59 88.75 165.17 88.75C162.75 88.75 159.385 87.25 159.22 86.705C158.835 85.385 159.095 81.03 159.095 81.03L157.36 80.75C157.36 80.75 157.585 85.825 156.655 86.385C155.725 86.945 149.585 85.825 148.47 84.34C147.355 82.855 148.06 78.13 148.805 78.32Z" stroke="#263238" stroke-linecap="round" stroke-linejoin="round"/>
<path d="M170.565 82.04L180.24 80.365V81.665L170.565 84.085V82.04Z" fill="#DAA520" stroke="#263238" stroke-linecap="round" stroke-linejoin="round"/>
<path d="M187.38 83.1978C188.136 78.4947 186.364 74.2988 183.422 73.8261C180.48 73.3533 177.483 76.7826 176.727 81.4857C175.971 86.1888 177.743 90.3847 180.685 90.8575C183.627 91.3303 186.624 87.9009 187.38 83.1978Z" fill="#DAA520" stroke="#263238" stroke-linecap="round" stroke-linejoin="round"/>
<path d="M188.935 83.3851C188.3 87.3451 186.095 90.2801 184.02 89.9451C181.945 89.6101 180.77 86.1351 181.405 82.1751C182.04 78.2151 184.24 75.2851 186.32 75.6201C188.4 75.9551 189.57 79.4301 188.935 83.3851Z" fill="#DAA520" stroke="#263238" stroke-linecap="round" stroke-linejoin="round"/>
<path d="M186 66.7849C186.359 71.9902 185.792 77.2179 184.325 82.2249C184.325 82.2249 184.14 85.2249 186.93 83.8999C189.72 82.5749 189.35 71.2499 188.975 66.5999C188.6 61.9499 185.075 63.2499 186 66.7849Z" fill="white" stroke="#263238" stroke-linecap="round" stroke-linejoin="round"/>
<path d="M175.59 58.04C175.59 58.04 179.865 56.925 182.09 60.835C184.315 64.745 183.95 68.275 187.09 68.645C190.23 69.015 190.44 65.485 188.765 61.02C187.09 56.555 183.56 53.205 178.72 52.835C173.88 52.465 171.5 56.37 171.5 56.37C171.5 56.37 174.1 56.74 175.59 58.04Z" fill="#DAA520" stroke="#263238" stroke-linecap="round" stroke-linejoin="round"/>
<path d="M175.215 127.61L162.38 156.815C162.38 156.815 127.41 163.315 124.25 163.315C121.09 163.315 114.75 165.545 113.46 166.315C112.17 167.085 99.5249 172.89 101.96 173.25C103.46 173.475 107.34 171.34 107.34 171.34C107.34 171.34 101.2 174.34 101.755 175.245C102.31 176.15 109.755 172.455 109.755 172.455C109.755 172.455 102.95 176.455 104.345 176.68C105.615 176.905 107.15 176.18 108.455 175.245C109.593 174.546 110.819 174.002 112.1 173.625C112.1 173.625 109.1 175.625 108.745 176.535C108.39 177.445 109.49 176.905 110.605 176.535C112.691 175.635 114.709 174.582 116.64 173.385C117.38 172.825 119.615 171.71 121.105 170.41L124.08 167.805C124.08 167.805 143.98 168.36 153.08 167.99C162.18 167.62 166.66 166.69 170.01 163.34C173.36 159.99 182.845 138.785 185.075 133.02C187.305 127.255 185.82 123.905 183.575 120.02" fill="white"/>
<mask id="mask4_865_598" style="mask-type:alpha" maskUnits="userSpaceOnUse" x="101" y="120" width="86" height="58">
<path d="M175.215 127.61L162.38 156.815C162.38 156.815 127.41 163.315 124.25 163.315C121.09 163.315 114.75 165.545 113.46 166.315C112.17 167.085 99.5249 172.89 101.96 173.25C103.46 173.475 107.34 171.34 107.34 171.34C107.34 171.34 101.2 174.34 101.755 175.245C102.31 176.15 109.755 172.455 109.755 172.455C109.755 172.455 102.95 176.455 104.345 176.68C105.615 176.905 107.15 176.18 108.455 175.245C109.593 174.546 110.819 174.002 112.1 173.625C112.1 173.625 109.1 175.625 108.745 176.535C108.39 177.445 109.49 176.905 110.605 176.535C112.691 175.635 114.709 174.582 116.64 173.385C117.38 172.825 119.615 171.71 121.105 170.41L124.08 167.805C124.08 167.805 143.98 168.36 153.08 167.99C162.18 167.62 166.66 166.69 170.01 163.34C173.36 159.99 182.845 138.785 185.075 133.02C187.305 127.255 185.82 123.905 183.575 120.02" fill="white"/>
</mask>
<g mask="url(#mask4_865_598)">
<g style="mix-blend-mode:multiply" opacity="0.5">
<path d="M175.735 146.745C169.735 158.03 164.67 161.57 159.36 164.245C154.05 166.92 124.835 167.565 124.835 167.565L126.065 167.86C131.34 167.99 145.725 168.295 153.065 167.995C162.18 167.625 166.645 166.695 169.995 163.345C173.345 159.995 182.83 138.79 185.06 133.025C186.095 130.355 186.325 128.205 186.06 126.275L184.795 127.07C182.174 133.805 179.149 140.375 175.735 146.745Z" fill="#DAA520"/>
</g>
</g>
<path d="M175.215 127.61L162.38 156.815C162.38 156.815 127.41 163.315 124.25 163.315C121.09 163.315 114.75 165.545 113.46 166.315C112.17 167.085 99.5249 172.89 101.96 173.25C103.46 173.475 107.34 171.34 107.34 171.34C107.34 171.34 101.2 174.34 101.755 175.245C102.31 176.15 109.755 172.455 109.755 172.455C109.755 172.455 102.95 176.455 104.345 176.68C105.615 176.905 107.15 176.18 108.455 175.245C109.593 174.546 110.819 174.002 112.1 173.625C112.1 173.625 109.1 175.625 108.745 176.535C108.39 177.445 109.49 176.905 110.605 176.535C112.691 175.635 114.709 174.582 116.64 173.385C117.38 172.825 119.615 171.71 121.105 170.41L124.08 167.805C124.08 167.805 143.98 168.36 153.08 167.99C162.18 167.62 166.66 166.69 170.01 163.34C173.36 159.99 182.845 138.785 185.075 133.02C187.305 127.255 185.82 123.905 183.575 120.02" stroke="#263238" stroke-miterlimit="10"/>
<path d="M175 126.875L171.095 137C173.965 135.47 179.35 133.415 183.645 136.5C184.25 135.08 184.745 133.88 185.075 133.025C187.31 127.26 185.82 123.91 183.575 120.025" fill="#263238"/>
<path d="M175 126.875L171.095 137C173.965 135.47 179.35 133.415 183.645 136.5C184.25 135.08 184.745 133.88 185.075 133.025C187.31 127.26 185.82 123.91 183.575 120.025" stroke="#263238" stroke-linecap="round" stroke-linejoin="round"/>
<path d="M147.365 140.31C143.59 141.415 128.68 145.78 127.295 146.105C126.437 146.314 125.567 146.469 124.69 146.57C124.69 146.57 119.48 144.335 118.085 143.315C116.69 142.295 115.015 142.94 114.18 143.315C113.345 143.69 112.68 146.29 114.275 146.29C115.87 146.29 116.135 146.195 117.9 147.685C119.665 149.175 119.67 149.92 120.97 150.475C122.27 151.03 124.415 150.66 125.53 150.475C126.53 150.31 143.82 149.16 148.075 148.935C148.63 146.595 148.075 142.94 147.365 140.31Z" fill="white"/>
<mask id="mask5_865_598" style="mask-type:alpha" maskUnits="userSpaceOnUse" x="113" y="140" width="36" height="11">
<path d="M147.365 140.31C143.59 141.415 128.68 145.78 127.295 146.105C126.437 146.314 125.567 146.469 124.69 146.57C124.69 146.57 119.48 144.335 118.085 143.315C116.69 142.295 115.015 142.94 114.18 143.315C113.345 143.69 112.68 146.29 114.275 146.29C115.87 146.29 116.135 146.195 117.9 147.685C119.665 149.175 119.67 149.92 120.97 150.475C122.27 151.03 124.415 150.66 125.53 150.475C126.53 150.31 143.82 149.16 148.075 148.935C148.63 146.595 148.075 142.94 147.365 140.31Z" fill="white"/>
</mask>
<g mask="url(#mask5_865_598)">
<g style="mix-blend-mode:multiply" opacity="0.5">
<path d="M147.96 143L125.53 150.5C126.53 150.335 143.82 149.185 148.075 148.96C148.455 147.33 148.315 145.105 147.96 143Z" fill="#DAA520"/>
</g>
</g>
<path d="M147.365 140.31C143.59 141.415 128.68 145.78 127.295 146.105C126.437 146.314 125.567 146.469 124.69 146.57C124.69 146.57 119.48 144.335 118.085 143.315C116.69 142.295 115.015 142.94 114.18 143.315C113.345 143.69 112.68 146.29 114.275 146.29C115.87 146.29 116.135 146.195 117.9 147.685C119.665 149.175 119.67 149.92 120.97 150.475C122.27 151.03 124.415 150.66 125.53 150.475C126.53 150.31 143.82 149.16 148.075 148.935C148.63 146.595 148.075 142.94 147.365 140.31Z" stroke="#263238" stroke-linecap="round" stroke-linejoin="round"/>
<path d="M110.085 146.385C110.085 146.385 108.13 147.5 107.585 148.8C107.04 150.1 108.14 149.73 108.515 149.455C108.89 149.18 110.47 147.87 110.47 147.87L110.085 146.385Z" fill="white" stroke="#263238" stroke-linecap="round" stroke-linejoin="round"/>
<path d="M110.645 145.45C110.279 145.685 109.989 146.021 109.812 146.418C109.634 146.815 109.576 147.256 109.645 147.685C109.83 149.265 111.505 151.59 111.695 150.66C111.885 149.73 110.645 145.45 110.645 145.45Z" fill="white" stroke="#263238" stroke-linecap="round" stroke-linejoin="round"/>
<path d="M112.97 144.055C112.97 144.055 111.2 144.52 110.645 145.45C110.09 146.38 111.015 150.385 111.67 150.66C111.809 150.722 111.96 150.752 112.113 150.747C112.265 150.742 112.414 150.703 112.549 150.631C112.683 150.56 112.8 150.459 112.889 150.335C112.979 150.212 113.039 150.07 113.065 149.92C113.25 149.265 112.97 144.055 112.97 144.055Z" fill="white" stroke="#263238" stroke-linecap="round" stroke-linejoin="round"/>
<path d="M115.205 143.125C115.205 143.125 112.875 143.125 112.6 144.245C112.325 145.365 111.855 150.195 112.32 150.94C112.785 151.685 113.53 151.405 113.9 150.475C114.27 149.545 115.205 143.125 115.205 143.125Z" fill="white" stroke="#263238" stroke-linecap="round" stroke-linejoin="round"/>
<path d="M117.32 134.46L113.5 151.855L114.1 154.075C114.109 154.109 114.127 154.14 114.152 154.165C114.176 154.19 114.207 154.208 114.241 154.217C114.275 154.226 114.311 154.226 114.345 154.217C114.379 154.208 114.41 154.19 114.435 154.165L116.105 152.505L118.895 134.925L117.32 134.46Z" fill="#263238"/>
<path d="M121.065 148.5C121.065 148.5 118.925 149.34 117.25 150.085C115.575 150.83 113.9 151.2 114.085 152.225C114.27 153.25 115.015 152.875 116.225 152.505C117.885 151.926 119.601 151.52 121.345 151.295C123.67 151.015 125.53 148.875 125.53 148.875" fill="white"/>
<path d="M121.065 148.5C121.065 148.5 118.925 149.34 117.25 150.085C115.575 150.83 113.9 151.2 114.085 152.225C114.27 153.25 115.015 152.875 116.225 152.505C117.885 151.926 119.601 151.52 121.345 151.295C123.67 151.015 125.53 148.875 125.53 148.875" stroke="#263238" stroke-linecap="round" stroke-linejoin="round"/>
<path d="M113.55 152.125L113.94 153.765C113.959 153.844 113.999 153.917 114.055 153.976C114.111 154.035 114.181 154.078 114.259 154.101C114.337 154.125 114.42 154.127 114.499 154.108C114.578 154.09 114.651 154.051 114.71 153.995L115.625 153.125" stroke="white" stroke-width="0.5" stroke-linecap="round" stroke-linejoin="round"/>
<path d="M113.505 151.855L115.48 143.045" stroke="white" stroke-width="0.5" stroke-linecap="round" stroke-linejoin="round"/>
<path d="M45.1699 117.31L70.3949 140.77" stroke="#263238" stroke-width="0.5" stroke-linecap="round" stroke-linejoin="round"/>
</svg>
