<?xml version="1.0" encoding="UTF-8"?>
<!DOCTYPE svg PUBLIC "-//W3C//DTD SVG 1.1//EN" "http://www.w3.org/Graphics/SVG/1.1/DTD/svg11.dtd">
<!-- Creator: CorelDRAW 2019 (64-Bit) -->
<svg xmlns="http://www.w3.org/2000/svg" xml:space="preserve" width="11in" height="8.5in" version="1.1" style="shape-rendering:geometricPrecision; text-rendering:geometricPrecision; image-rendering:optimizeQuality; fill-rule:evenodd; clip-rule:evenodd"
viewBox="0 0 11000 8500"
 xmlns:xlink="http://www.w3.org/1999/xlink"
 xmlns:xodm="http://www.corel.com/coreldraw/odm/2003">
 <defs>
  <style type="text/css">
   <![CDATA[
    .fil0 {fill:goldenrod}
   ]]>
  </style>
 </defs>
 <g id="Layer_x0020_1">
  <metadata id="CorelCorpID_0Corel-Layer"/>
  <g id="_2162838825952">
   <path class="fil0" d="M5932.5 4207.45c14.16,17.68 260.9,178.87 287.13,186.7l70.92 -192.37 -358.05 5.67z"/>
   <path class="fil0" d="M6459.45 3849.11l-339.4 917.22 244.96 -162.57c26.44,-17.92 62.2,-37.89 79.98,-56.48 55.63,21.95 249.92,169.16 324.76,206.59 -0.25,-12.92 -12.55,-39.86 -16.83,-53.55l-133.78 -395.14c-27.34,-74.7 -50.34,-150.21 -76.79,-225.04l-67.73 -198.83c-0.64,-1.85 -4.09,-12.75 -4.25,-13.15 -0.6,-1.44 -2.46,-5.83 -3.23,-7.28 -2.63,-4.98 -2.65,-5.93 -2.27,-5.89 -0.77,-0.74 -2.36,-2.4 -5.41,-5.86z"/>
   <path class="fil0" d="M6622.12 4191.92c3.16,25.25 21.88,71.62 30.37,97.08 10.64,31.89 21.14,70.25 35.63,95.88 58.8,-44.29 252.89,-167.04 291.97,-200.24l-357.98 7.28z"/>
  </g>
 </g>
</svg>
