<?xml version="1.0" encoding="UTF-8"?>
<!DOCTYPE svg PUBLIC "-//W3C//DTD SVG 1.1//EN" "http://www.w3.org/Graphics/SVG/1.1/DTD/svg11.dtd">
<!-- Creator: CorelDRAW 2019 (64-Bit) -->
<svg xmlns="http://www.w3.org/2000/svg" xml:space="preserve" width="11in" height="8.5in" version="1.1" style="shape-rendering:geometricPrecision; text-rendering:geometricPrecision; image-rendering:optimizeQuality; fill-rule:evenodd; clip-rule:evenodd"
viewBox="0 0 11000 8500"
 xmlns:xlink="http://www.w3.org/1999/xlink"
 xmlns:xodm="http://www.corel.com/coreldraw/odm/2003">
 <defs>
  <style type="text/css">
   <![CDATA[
    .fil1 {fill:goldenrod}
    .fil0 {fill:black;fill-rule:nonzero}
   ]]>
  </style>
 </defs>
 <g id="Layer_x0020_1">
  <metadata id="CorelCorpID_0Corel-Layer"/>
  <path class="fil0" d="M1873.07 4319.6c0,253.39 192.78,430.41 430.41,430.41 175.8,0 327.35,-87.3 391.61,-252.18l-166.1 0c-44.86,89.72 -124.88,132.15 -225.51,132.15 -167.31,0 -288.56,-120.03 -288.56,-310.38 0,-190.35 121.24,-309.16 288.56,-309.16 100.63,0 180.65,42.43 225.51,132.15l166.1 0c-64.26,-164.89 -215.81,-253.39 -391.61,-253.39 -237.63,0 -430.41,178.23 -430.41,430.41zm1121.48 71.53c0,-141.85 63.05,-184.28 164.89,-184.28l35.16 0 0 -143.07c-94.57,0 -161.25,41.22 -200.05,107.91l0 -96.99 -138.21 0 0 668.04 138.21 0 0 -351.6zm608.64 -210.96c103.06,0 184.29,65.47 186.71,168.52l-369.78 0c14.55,-105.48 89.72,-168.52 183.07,-168.52zm312.8 363.72l-149.13 0c-25.46,52.14 -72.75,93.36 -157.61,93.36 -101.84,0 -180.65,-66.68 -190.35,-177.01l510.43 0c3.64,-23.04 4.85,-44.86 4.85,-67.89 0,-196.41 -134.57,-328.57 -324.93,-328.57 -197.62,0 -333.41,134.58 -333.41,344.33 0,209.75 141.85,345.54 333.41,345.54 163.68,0 269.16,-93.36 306.74,-209.75zm435.26 -363.72c103.06,0 184.29,65.47 186.71,168.52l-369.79 0c14.55,-105.48 89.72,-168.52 183.07,-168.52zm312.8 363.72l-149.12 0c-25.46,52.14 -72.75,93.36 -157.62,93.36 -101.84,0 -180.65,-66.68 -190.35,-177.01l510.43 0c3.64,-23.04 4.85,-44.86 4.85,-67.89 0,-196.41 -134.58,-328.57 -324.93,-328.57 -197.62,0 -333.41,134.58 -333.41,344.33 0,209.75 141.85,345.54 333.41,345.54 163.68,0 269.16,-93.36 306.74,-209.75zm107.91 -138.21c0,206.11 139.43,347.96 315.22,347.96 109.12,0 189.14,-50.92 231.57,-111.54l0 100.63 139.43 0 0 -897.19 -139.43 0 0 322.5c-50.92,-63.05 -143.07,-104.27 -230.36,-104.27 -177.01,0 -316.44,135.8 -316.44,341.9zm546.8 2.43c0,144.28 -98.21,225.51 -202.48,225.51 -103.06,0 -202.47,-83.66 -202.47,-227.93 0,-144.28 99.42,-221.87 202.47,-221.87 104.27,0 202.48,81.23 202.48,224.3zm321.29 -508l0 842.63 423.13 0 0 -111.54 -284.91 0 0 -731.08 -138.22 0zm1834.38 842.63l137 0 0 -394.04c0,-186.71 -117.61,-284.92 -274.01,-284.92 -80.02,0 -153.97,32.74 -198.83,87.3l0 -76.38 -138.21 0 0 668.04 138.21 0 0 -373.43c0,-122.45 66.69,-185.5 168.53,-185.5 100.63,0 167.31,63.04 167.31,185.5l0 373.43zm266.73 -334.63c0,209.75 135.79,345.54 327.35,345.54 163.68,0 270.37,-90.93 307.95,-221.87l-149.13 0c-25.46,69.11 -76.38,105.48 -158.82,105.48 -111.54,0 -185.5,-82.44 -185.5,-229.15 0,-145.49 73.96,-227.93 185.5,-227.93 82.44,0 135.79,41.22 158.82,105.48l149.13 0c-37.59,-140.64 -144.28,-221.87 -307.95,-221.87 -191.56,0 -327.35,135.8 -327.35,344.33zm1054.8 -227.93c103.06,0 184.29,65.47 186.71,168.52l-369.79 0c14.55,-105.48 89.72,-168.52 183.07,-168.52zm312.8 363.72l-149.13 0c-25.46,52.14 -72.75,93.36 -157.61,93.36 -101.84,0 -180.65,-66.68 -190.35,-177.01l510.43 0c3.63,-23.04 4.85,-44.86 4.85,-67.89 0,-196.41 -134.58,-328.57 -324.93,-328.57 -197.62,0 -333.42,134.58 -333.42,344.33 0,209.75 141.85,345.54 333.42,345.54 163.67,0 269.16,-93.36 306.74,-209.75z"/>
  <g id="_2162639632416">
   <path class="fil1" d="M5932.5 4207.45c14.16,17.68 260.9,178.87 287.13,186.7l70.92 -192.37 -358.05 5.67z"/>
   <path class="fil1" d="M6459.45 3849.11l-339.4 917.22 244.96 -162.57c26.44,-17.92 62.2,-37.89 79.98,-56.48 55.63,21.95 249.92,169.16 324.76,206.59 -0.25,-12.92 -12.55,-39.86 -16.83,-53.55l-133.78 -395.14c-27.34,-74.7 -50.34,-150.21 -76.79,-225.04l-67.73 -198.83c-0.64,-1.85 -4.09,-12.75 -4.25,-13.15 -0.6,-1.44 -2.46,-5.83 -3.23,-7.28 -2.63,-4.98 -2.65,-5.93 -2.27,-5.89 -0.77,-0.74 -2.36,-2.4 -5.41,-5.86z"/>
   <path class="fil1" d="M6622.12 4191.92c3.16,25.25 21.88,71.62 30.37,97.08 10.64,31.89 21.14,70.25 35.63,95.88 58.8,-44.29 252.89,-167.04 291.97,-200.24l-357.98 7.28z"/>
  </g>
 </g>
</svg>
